<?xml version="1.0" encoding="UTF-8" standalone="no"?>
<!DOCTYPE svg PUBLIC "-//W3C//DTD SVG 1.1//EN"
 "http://www.w3.org/Graphics/SVG/1.1/DTD/svg11.dtd">
<!-- Generated by graphviz version 2.43.0 (0)
 -->
<!-- Title: %3 Pages: 1 -->
<svg width="499pt" height="288pt"
 viewBox="0.00 0.00 499.29 288.00" xmlns="http://www.w3.org/2000/svg" xmlns:xlink="http://www.w3.org/1999/xlink">
<g id="graph0" class="graph" transform="scale(0.86 0.86) rotate(0) translate(4 332.57)">
<title>%3</title>
<polygon fill="white" stroke="transparent" points="-4,4 -4,-332.57 579.5,-332.57 579.5,4 -4,4"/>
<!-- Air -->
<g id="node1" class="node">
<title>Air</title>
<g id="a_node1"><a xlink:href="#compartment-Air" xlink:title="Air">
<path fill="#79cdcd" stroke="black" d="M278,-323C278,-323 248,-323 248,-323 242,-323 236,-317 236,-311 236,-311 236,-299 236,-299 236,-293 242,-287 248,-287 248,-287 278,-287 278,-287 284,-287 290,-293 290,-299 290,-299 290,-311 290,-311 290,-317 284,-323 278,-323"/>
<text text-anchor="middle" x="263" y="-301.3" font-family="Arial" font-size="14.00">Air</text>
</a>
</g>
</g>
<!-- Art -->
<g id="node2" class="node">
<title>Art</title>
<g id="a_node2"><a xlink:href="#compartment-Art" xlink:title="Art">
<path fill="#79cdcd" stroke="black" d="M278,-229C278,-229 248,-229 248,-229 242,-229 236,-223 236,-217 236,-217 236,-205 236,-205 236,-199 242,-193 248,-193 248,-193 278,-193 278,-193 284,-193 290,-199 290,-205 290,-205 290,-217 290,-217 290,-223 284,-229 278,-229"/>
<text text-anchor="middle" x="263" y="-207.3" font-family="Arial" font-size="14.00">Art</text>
</a>
</g>
</g>
<!-- Air&#45;&gt;Art -->
<g id="edge1" class="edge">
<title>Air&#45;&gt;Art</title>
<path fill="none" stroke="black" d="M257.59,-286.7C256.14,-273.33 255.87,-254.59 256.78,-239.22"/>
<polygon fill="black" stroke="black" points="260.27,-239.48 257.6,-229.23 253.29,-238.91 260.27,-239.48"/>
</g>
<!-- Art&#45;&gt;Air -->
<g id="edge6" class="edge">
<title>Art&#45;&gt;Air</title>
<path fill="none" stroke="black" d="M268.4,-229.23C269.86,-242.57 270.13,-261.31 269.23,-276.69"/>
<polygon fill="black" stroke="black" points="265.74,-276.44 268.41,-286.7 272.71,-277.01 265.74,-276.44"/>
</g>
<!-- Urine -->
<g id="node3" class="node">
<title>Urine</title>
<g id="a_node3"><a xlink:href="#compartment-Urine" xlink:title="Urine">
<path fill="#79cdcd" stroke="black" d="M242,-135C242,-135 212,-135 212,-135 206,-135 200,-129 200,-123 200,-123 200,-111 200,-111 200,-105 206,-99 212,-99 212,-99 242,-99 242,-99 248,-99 254,-105 254,-111 254,-111 254,-123 254,-123 254,-129 248,-135 242,-135"/>
<text text-anchor="middle" x="227" y="-113.3" font-family="Arial" font-size="14.00">Urine</text>
</a>
</g>
</g>
<!-- Art&#45;&gt;Urine -->
<g id="edge7" class="edge">
<title>Art&#45;&gt;Urine</title>
<path fill="none" stroke="black" d="M256.23,-192.7C250.95,-179.2 243.52,-160.23 237.48,-144.78"/>
<polygon fill="black" stroke="black" points="240.64,-143.26 233.74,-135.23 234.13,-145.81 240.64,-143.26"/>
</g>
<!-- Fat -->
<g id="node4" class="node">
<title>Fat</title>
<g id="a_node4"><a xlink:href="#compartment-Fat" xlink:title="Fat">
<path fill="#79cdcd" stroke="black" d="M386,-135C386,-135 356,-135 356,-135 350,-135 344,-129 344,-123 344,-123 344,-111 344,-111 344,-105 350,-99 356,-99 356,-99 386,-99 386,-99 392,-99 398,-105 398,-111 398,-111 398,-123 398,-123 398,-129 392,-135 386,-135"/>
<text text-anchor="middle" x="371" y="-113.3" font-family="Arial" font-size="14.00">Fat</text>
</a>
</g>
</g>
<!-- Art&#45;&gt;Fat -->
<g id="edge8" class="edge">
<title>Art&#45;&gt;Fat</title>
<path fill="none" stroke="black" d="M283.06,-192.91C299.93,-178.54 324.22,-157.85 343.01,-141.85"/>
<polygon fill="black" stroke="black" points="345.34,-144.46 350.68,-135.31 340.8,-139.13 345.34,-144.46"/>
</g>
<!-- Rich -->
<g id="node6" class="node">
<title>Rich</title>
<g id="a_node6"><a xlink:href="#compartment-Rich" xlink:title="Rich">
<path fill="#79cdcd" stroke="black" d="M170,-135C170,-135 140,-135 140,-135 134,-135 128,-129 128,-123 128,-123 128,-111 128,-111 128,-105 134,-99 140,-99 140,-99 170,-99 170,-99 176,-99 182,-105 182,-111 182,-111 182,-123 182,-123 182,-129 176,-135 170,-135"/>
<text text-anchor="middle" x="155" y="-113.3" font-family="Arial" font-size="14.00">Rich</text>
</a>
</g>
</g>
<!-- Art&#45;&gt;Rich -->
<g id="edge9" class="edge">
<title>Art&#45;&gt;Rich</title>
<path fill="none" stroke="black" d="M242.94,-192.91C226.07,-178.54 201.78,-157.85 182.99,-141.85"/>
<polygon fill="black" stroke="black" points="185.2,-139.13 175.32,-135.31 180.66,-144.46 185.2,-139.13"/>
</g>
<!-- Liver -->
<g id="node7" class="node">
<title>Liver</title>
<g id="a_node7"><a xlink:href="#compartment-Liver" xlink:title="Liver">
<path fill="#79cdcd" stroke="black" d="M42,-135C42,-135 12,-135 12,-135 6,-135 0,-129 0,-123 0,-123 0,-111 0,-111 0,-105 6,-99 12,-99 12,-99 42,-99 42,-99 48,-99 54,-105 54,-111 54,-111 54,-123 54,-123 54,-129 48,-135 42,-135"/>
<text text-anchor="middle" x="27" y="-113.3" font-family="Arial" font-size="14.00">Liver</text>
</a>
</g>
</g>
<!-- Art&#45;&gt;Liver -->
<g id="edge10" class="edge">
<title>Art&#45;&gt;Liver</title>
<path fill="none" stroke="black" d="M235.93,-199.45C193.45,-182.89 111.09,-150.78 63.45,-132.21"/>
<polygon fill="black" stroke="black" points="64.71,-128.94 54.12,-128.57 62.16,-135.46 64.71,-128.94"/>
</g>
<!-- Skin_e -->
<g id="node8" class="node">
<title>Skin_e</title>
<g id="a_node8"><a xlink:href="#compartment-Skin_e" xlink:title="Skin_e">
<path fill="#79cdcd" stroke="black" d="M462,-135C462,-135 428,-135 428,-135 422,-135 416,-129 416,-123 416,-123 416,-111 416,-111 416,-105 422,-99 428,-99 428,-99 462,-99 462,-99 468,-99 474,-105 474,-111 474,-111 474,-123 474,-123 474,-129 468,-135 462,-135"/>
<text text-anchor="middle" x="445" y="-113.3" font-family="Arial" font-size="14.00">Skin_e</text>
</a>
</g>
</g>
<!-- Art&#45;&gt;Skin_e -->
<g id="edge11" class="edge">
<title>Art&#45;&gt;Skin_e</title>
<path fill="none" stroke="black" d="M290.25,-196.23C321.2,-180.58 371.92,-154.94 406.81,-137.31"/>
<polygon fill="black" stroke="black" points="408.41,-140.42 415.76,-132.78 405.25,-134.17 408.41,-140.42"/>
</g>
<!-- Skin_u -->
<g id="node9" class="node">
<title>Skin_u</title>
<g id="a_node9"><a xlink:href="#compartment-Skin_u" xlink:title="Skin_u">
<path fill="#79cdcd" stroke="black" d="M548,-135C548,-135 514,-135 514,-135 508,-135 502,-129 502,-123 502,-123 502,-111 502,-111 502,-105 508,-99 514,-99 514,-99 548,-99 548,-99 554,-99 560,-105 560,-111 560,-111 560,-123 560,-123 560,-129 554,-135 548,-135"/>
<text text-anchor="middle" x="531" y="-113.3" font-family="Arial" font-size="14.00">Skin_u</text>
</a>
</g>
</g>
<!-- Art&#45;&gt;Skin_u -->
<g id="edge12" class="edge">
<title>Art&#45;&gt;Skin_u</title>
<path fill="none" stroke="black" d="M290.13,-200.87C331.7,-186.85 413.63,-159.11 483,-135 486.05,-133.94 489.2,-132.84 492.37,-131.73"/>
<polygon fill="black" stroke="black" points="493.56,-135.02 501.83,-128.39 491.23,-128.42 493.56,-135.02"/>
</g>
<!-- Poor -->
<g id="node10" class="node">
<title>Poor</title>
<g id="a_node10"><a xlink:href="#compartment-Poor" xlink:title="Poor">
<path fill="#79cdcd" stroke="black" d="M314,-135C314,-135 284,-135 284,-135 278,-135 272,-129 272,-123 272,-123 272,-111 272,-111 272,-105 278,-99 284,-99 284,-99 314,-99 314,-99 320,-99 326,-105 326,-111 326,-111 326,-123 326,-123 326,-129 320,-135 314,-135"/>
<text text-anchor="middle" x="299" y="-113.3" font-family="Arial" font-size="14.00">Poor</text>
</a>
</g>
</g>
<!-- Art&#45;&gt;Poor -->
<g id="edge13" class="edge">
<title>Art&#45;&gt;Poor</title>
<path fill="none" stroke="black" d="M269.77,-192.7C275.05,-179.2 282.48,-160.23 288.52,-144.78"/>
<polygon fill="black" stroke="black" points="291.87,-145.81 292.26,-135.23 285.36,-143.26 291.87,-145.81"/>
</g>
<!-- Ven -->
<g id="node5" class="node">
<title>Ven</title>
<g id="a_node5"><a xlink:href="#compartment-Ven" xlink:title="Ven">
<path fill="#79cdcd" stroke="black" d="M314,-41C314,-41 284,-41 284,-41 278,-41 272,-35 272,-29 272,-29 272,-17 272,-17 272,-11 278,-5 284,-5 284,-5 314,-5 314,-5 320,-5 326,-11 326,-17 326,-17 326,-29 326,-29 326,-35 320,-41 314,-41"/>
<text text-anchor="middle" x="299" y="-19.3" font-family="Arial" font-size="14.00">Ven</text>
</a>
</g>
</g>
<!-- Fat&#45;&gt;Ven -->
<g id="edge2" class="edge">
<title>Fat&#45;&gt;Ven</title>
<path fill="none" stroke="black" d="M357.46,-98.7C346.6,-84.82 331.19,-65.14 318.93,-49.46"/>
<polygon fill="black" stroke="black" points="321.4,-46.94 312.48,-41.23 315.89,-51.26 321.4,-46.94"/>
</g>
<!-- Ven&#45;&gt;Art -->
<g id="edge14" class="edge">
<title>Ven&#45;&gt;Art</title>
<path fill="none" stroke="black" d="M271.82,-26.24C230.58,-31.28 153.37,-47.45 119,-99 87.09,-146.87 173.6,-182.84 226.09,-199.59"/>
<polygon fill="black" stroke="black" points="225.19,-202.97 235.78,-202.59 227.26,-196.29 225.19,-202.97"/>
</g>
<!-- Rich&#45;&gt;Ven -->
<g id="edge3" class="edge">
<title>Rich&#45;&gt;Ven</title>
<path fill="none" stroke="black" d="M181.75,-98.91C204.74,-84.22 238.08,-62.92 263.34,-46.78"/>
<polygon fill="black" stroke="black" points="265.36,-49.64 271.91,-41.31 261.6,-43.74 265.36,-49.64"/>
</g>
<!-- Liver&#45;&gt;Ven -->
<g id="edge5" class="edge">
<title>Liver&#45;&gt;Ven</title>
<path fill="none" stroke="black" d="M54.07,-106.84C103.03,-90.28 206.33,-55.34 261.84,-36.57"/>
<polygon fill="black" stroke="black" points="263.28,-39.78 271.63,-33.26 261.04,-33.15 263.28,-39.78"/>
</g>
<!-- Liver&#45;&gt;Liver -->
<g id="edge4" class="edge">
<title>Liver&#45;&gt;Liver</title>
<path fill="none" stroke="black" d="M54.24,-134.61C64.02,-134.99 72,-129.12 72,-117 72,-109.43 68.88,-104.29 64.16,-101.6"/>
<polygon fill="black" stroke="black" points="64.76,-98.15 54.24,-99.39 63.24,-104.98 64.76,-98.15"/>
</g>
<!-- Skin_e&#45;&gt;Ven -->
<g id="edge15" class="edge">
<title>Skin_e&#45;&gt;Ven</title>
<path fill="none" stroke="black" d="M417.88,-98.91C394.57,-84.22 360.76,-62.92 335.15,-46.78"/>
<polygon fill="black" stroke="black" points="336.8,-43.68 326.47,-41.31 333.06,-49.6 336.8,-43.68"/>
</g>
<!-- Skin_sc_e -->
<g id="node11" class="node">
<title>Skin_sc_e</title>
<g id="a_node11"><a xlink:href="#compartment-Skin_sc_e" xlink:title="Skin_sc_e">
<path fill="#79cdcd" stroke="black" d="M466.5,-41C466.5,-41 411.5,-41 411.5,-41 405.5,-41 399.5,-35 399.5,-29 399.5,-29 399.5,-17 399.5,-17 399.5,-11 405.5,-5 411.5,-5 411.5,-5 466.5,-5 466.5,-5 472.5,-5 478.5,-11 478.5,-17 478.5,-17 478.5,-29 478.5,-29 478.5,-35 472.5,-41 466.5,-41"/>
<text text-anchor="middle" x="439" y="-19.3" font-family="Arial" font-size="14.00">Skin_sc_e</text>
</a>
</g>
</g>
<!-- Skin_e&#45;&gt;Skin_sc_e -->
<g id="edge16" class="edge">
<title>Skin_e&#45;&gt;Skin_sc_e</title>
<path fill="none" stroke="black" d="M438.46,-98.7C436.16,-85.46 434.67,-66.95 434.56,-51.66"/>
<polygon fill="black" stroke="black" points="438.06,-51.28 434.72,-41.23 431.06,-51.17 438.06,-51.28"/>
</g>
<!-- Skin_u&#45;&gt;Ven -->
<g id="edge17" class="edge">
<title>Skin_u&#45;&gt;Ven</title>
<path fill="none" stroke="black" d="M501.62,-104.35C459.47,-87.64 381.89,-56.87 335.93,-38.64"/>
<polygon fill="black" stroke="black" points="336.93,-35.28 326.34,-34.84 334.35,-41.78 336.93,-35.28"/>
</g>
<!-- Skin_sc_u -->
<g id="node12" class="node">
<title>Skin_sc_u</title>
<g id="a_node12"><a xlink:href="#compartment-Skin_sc_u" xlink:title="Skin_sc_u">
<path fill="#79cdcd" stroke="black" d="M563.5,-41C563.5,-41 508.5,-41 508.5,-41 502.5,-41 496.5,-35 496.5,-29 496.5,-29 496.5,-17 496.5,-17 496.5,-11 502.5,-5 508.5,-5 508.5,-5 563.5,-5 563.5,-5 569.5,-5 575.5,-11 575.5,-17 575.5,-17 575.5,-29 575.5,-29 575.5,-35 569.5,-41 563.5,-41"/>
<text text-anchor="middle" x="536" y="-19.3" font-family="Arial" font-size="14.00">Skin_sc_u</text>
</a>
</g>
</g>
<!-- Skin_u&#45;&gt;Skin_sc_u -->
<g id="edge18" class="edge">
<title>Skin_u&#45;&gt;Skin_sc_u</title>
<path fill="none" stroke="black" d="M526.53,-98.7C525.8,-85.33 526.55,-66.59 528.3,-51.22"/>
<polygon fill="black" stroke="black" points="531.78,-51.61 529.66,-41.23 524.84,-50.66 531.78,-51.61"/>
</g>
<!-- Poor&#45;&gt;Ven -->
<g id="edge21" class="edge">
<title>Poor&#45;&gt;Ven</title>
<path fill="none" stroke="black" d="M299,-98.7C299,-85.46 299,-66.95 299,-51.66"/>
<polygon fill="black" stroke="black" points="302.5,-51.23 299,-41.23 295.5,-51.23 302.5,-51.23"/>
</g>
<!-- Skin_sc_e&#45;&gt;Skin_e -->
<g id="edge19" class="edge">
<title>Skin_sc_e&#45;&gt;Skin_e</title>
<path fill="none" stroke="black" d="M445.53,-41.23C447.85,-54.57 449.35,-73.31 449.45,-88.69"/>
<polygon fill="black" stroke="black" points="445.95,-88.64 449.28,-98.7 452.95,-88.75 445.95,-88.64"/>
</g>
<!-- Skin_sc_u&#45;&gt;Skin_u -->
<g id="edge20" class="edge">
<title>Skin_sc_u&#45;&gt;Skin_u</title>
<path fill="none" stroke="black" d="M540.47,-41.23C541.2,-54.57 540.46,-73.31 538.71,-88.69"/>
<polygon fill="black" stroke="black" points="535.23,-88.32 537.35,-98.7 542.17,-89.26 535.23,-88.32"/>
</g>
<!-- Gut -->
<g id="node13" class="node">
<title>Gut</title>
<g id="a_node13"><a xlink:href="#compartment-Gut" xlink:title="Gut">
<path fill="#79cdcd" stroke="black" d="M42,-229C42,-229 12,-229 12,-229 6,-229 0,-223 0,-217 0,-217 0,-205 0,-205 0,-199 6,-193 12,-193 12,-193 42,-193 42,-193 48,-193 54,-199 54,-205 54,-205 54,-217 54,-217 54,-223 48,-229 42,-229"/>
<text text-anchor="middle" x="27" y="-207.3" font-family="Arial" font-size="14.00">Gut</text>
</a>
</g>
</g>
<!-- Gut&#45;&gt;Liver -->
<g id="edge22" class="edge">
<title>Gut&#45;&gt;Liver</title>
<path fill="none" stroke="black" d="M27,-192.7C27,-179.46 27,-160.95 27,-145.66"/>
<polygon fill="black" stroke="black" points="30.5,-145.23 27,-135.23 23.5,-145.23 30.5,-145.23"/>
</g>
</g>
</svg>
