<?xml version="1.0" encoding="UTF-8" standalone="no"?>
<!DOCTYPE svg PUBLIC "-//W3C//DTD SVG 1.1//EN"
 "http://www.w3.org/Graphics/SVG/1.1/DTD/svg11.dtd">
<!-- Generated by graphviz version 12.2.1 (20241206.2353)
 -->
<!-- Pages: 1 -->
<svg width="501pt" height="288pt"
 viewBox="0.00 0.00 501.06 288.00" xmlns="http://www.w3.org/2000/svg" xmlns:xlink="http://www.w3.org/1999/xlink">
<g id="graph0" class="graph" transform="scale(0.48932 0.48932) rotate(0) translate(4 584.57)">
<polygon fill="white" stroke="none" points="-4,4 -4,-584.57 1020,-584.57 1020,4 -4,4"/>
<g id="clust1" class="cluster">
<title>cluster_Air</title>
<g id="a_clust1"><a xlink:href="#compartment-Air" xlink:title="Air&#10;[PBPKO:00448]">
<path fill="lightblue" stroke="black" d="M497,-460.85C497,-460.85 601,-460.85 601,-460.85 607,-460.85 613,-466.85 613,-472.85 613,-472.85 613,-559.27 613,-559.27 613,-565.27 607,-571.27 601,-571.27 601,-571.27 497,-571.27 497,-571.27 491,-571.27 485,-565.27 485,-559.27 485,-559.27 485,-472.85 485,-472.85 485,-466.85 491,-460.85 497,-460.85"/>
<text text-anchor="middle" x="549" y="-553.97" font-family="Arial" font-size="14.00">Air</text>
<text text-anchor="middle" x="549" y="-538.22" font-family="Arial" font-size="14.00">[PBPKO:00448]</text>
</a>
</g>
</g>
<g id="clust2" class="cluster">
<title>cluster_Urine</title>
<g id="a_clust2"><a xlink:href="#compartment-Urine" xlink:title="Urine&#10;[PBPKO:00556]">
<path fill="lightblue" stroke="black" d="M756,-159.82C756,-159.82 860,-159.82 860,-159.82 866,-159.82 872,-165.82 872,-171.82 872,-171.82 872,-258.24 872,-258.24 872,-264.24 866,-270.24 860,-270.24 860,-270.24 756,-270.24 756,-270.24 750,-270.24 744,-264.24 744,-258.24 744,-258.24 744,-171.82 744,-171.82 744,-165.82 750,-159.82 756,-159.82"/>
<text text-anchor="middle" x="808" y="-252.94" font-family="Arial" font-size="14.00">Urine</text>
<text text-anchor="middle" x="808" y="-237.19" font-family="Arial" font-size="14.00">[PBPKO:00556]</text>
</a>
</g>
</g>
<g id="clust3" class="cluster">
<title>cluster_Fat</title>
<g id="a_clust3"><a xlink:href="#compartment-Fat" xlink:title="Fat&#10;[PBPKO:00460]">
<path fill="lightblue" stroke="black" d="M292,-159.82C292,-159.82 396,-159.82 396,-159.82 402,-159.82 408,-165.82 408,-171.82 408,-171.82 408,-258.24 408,-258.24 408,-264.24 402,-270.24 396,-270.24 396,-270.24 292,-270.24 292,-270.24 286,-270.24 280,-264.24 280,-258.24 280,-258.24 280,-171.82 280,-171.82 280,-165.82 286,-159.82 292,-159.82"/>
<text text-anchor="middle" x="344" y="-252.94" font-family="Arial" font-size="14.00">Fat</text>
<text text-anchor="middle" x="344" y="-237.19" font-family="Arial" font-size="14.00">[PBPKO:00460]</text>
</a>
</g>
</g>
<g id="clust4" class="cluster">
<title>cluster_Rich</title>
<g id="a_clust4"><a xlink:href="#compartment-Rich" xlink:title="Rich&#10;[PBPKO:00453]">
<path fill="lightblue" stroke="black" d="M620,-159.82C620,-159.82 724,-159.82 724,-159.82 730,-159.82 736,-165.82 736,-171.82 736,-171.82 736,-258.24 736,-258.24 736,-264.24 730,-270.24 724,-270.24 724,-270.24 620,-270.24 620,-270.24 614,-270.24 608,-264.24 608,-258.24 608,-258.24 608,-171.82 608,-171.82 608,-165.82 614,-159.82 620,-159.82"/>
<text text-anchor="middle" x="672" y="-252.94" font-family="Arial" font-size="14.00">Rich</text>
<text text-anchor="middle" x="672" y="-237.19" font-family="Arial" font-size="14.00">[PBPKO:00453]</text>
</a>
</g>
</g>
<g id="clust5" class="cluster">
<title>cluster_Liver</title>
<g id="a_clust5"><a xlink:href="#compartment-Liver" xlink:title="Liver&#10;[PBPKO:00558]">
<path fill="lightblue" stroke="black" d="M892,-9.3C892,-9.3 996,-9.3 996,-9.3 1002,-9.3 1008,-15.3 1008,-21.3 1008,-21.3 1008,-258.24 1008,-258.24 1008,-264.24 1002,-270.24 996,-270.24 996,-270.24 892,-270.24 892,-270.24 886,-270.24 880,-264.24 880,-258.24 880,-258.24 880,-21.3 880,-21.3 880,-15.3 886,-9.3 892,-9.3"/>
<text text-anchor="middle" x="944" y="-252.94" font-family="Arial" font-size="14.00">Liver</text>
<text text-anchor="middle" x="944" y="-237.19" font-family="Arial" font-size="14.00">[PBPKO:00558]</text>
</a>
</g>
</g>
<g id="clust6" class="cluster">
<title>cluster_Art</title>
<g id="a_clust6"><a xlink:href="#compartment-Art" xlink:title="Art&#10;[PBPKO:00552]">
<path fill="lightblue" stroke="black" d="M497,-310.34C497,-310.34 601,-310.34 601,-310.34 607,-310.34 613,-316.34 613,-322.34 613,-322.34 613,-408.75 613,-408.75 613,-414.75 607,-420.75 601,-420.75 601,-420.75 497,-420.75 497,-420.75 491,-420.75 485,-414.75 485,-408.75 485,-408.75 485,-322.34 485,-322.34 485,-316.34 491,-310.34 497,-310.34"/>
<text text-anchor="middle" x="549" y="-403.45" font-family="Arial" font-size="14.00">Art</text>
<text text-anchor="middle" x="549" y="-387.7" font-family="Arial" font-size="14.00">[PBPKO:00552]</text>
</a>
</g>
</g>
<g id="clust7" class="cluster">
<title>cluster_Ven</title>
<g id="a_clust7"><a xlink:href="#compartment-Ven" xlink:title="Ven&#10;[PBPKO:00561]">
<path fill="lightblue" stroke="black" d="M428,-9.3C428,-9.3 532,-9.3 532,-9.3 538,-9.3 544,-15.3 544,-21.3 544,-21.3 544,-107.72 544,-107.72 544,-113.72 538,-119.72 532,-119.72 532,-119.72 428,-119.72 428,-119.72 422,-119.72 416,-113.72 416,-107.72 416,-107.72 416,-21.3 416,-21.3 416,-15.3 422,-9.3 428,-9.3"/>
<text text-anchor="middle" x="480" y="-102.42" font-family="Arial" font-size="14.00">Ven</text>
<text text-anchor="middle" x="480" y="-86.67" font-family="Arial" font-size="14.00">[PBPKO:00561]</text>
</a>
</g>
</g>
<g id="clust8" class="cluster">
<title>cluster_Skin_e</title>
<g id="a_clust8"><a xlink:href="#compartment-Skin_e" xlink:title="Skin_e&#10;[PBPKO:00456]">
<path fill="lightblue" stroke="black" d="M20,-159.82C20,-159.82 124,-159.82 124,-159.82 130,-159.82 136,-165.82 136,-171.82 136,-171.82 136,-258.24 136,-258.24 136,-264.24 130,-270.24 124,-270.24 124,-270.24 20,-270.24 20,-270.24 14,-270.24 8,-264.24 8,-258.24 8,-258.24 8,-171.82 8,-171.82 8,-165.82 14,-159.82 20,-159.82"/>
<text text-anchor="middle" x="72" y="-252.94" font-family="Arial" font-size="14.00">Skin_e</text>
<text text-anchor="middle" x="72" y="-237.19" font-family="Arial" font-size="14.00">[PBPKO:00456]</text>
</a>
</g>
</g>
<g id="clust9" class="cluster">
<title>cluster_Skin_u</title>
<g id="a_clust9"><a xlink:href="#compartment-Skin_u" xlink:title="Skin_u&#10;[PBPKO:00455]">
<path fill="lightblue" stroke="black" d="M156,-159.82C156,-159.82 260,-159.82 260,-159.82 266,-159.82 272,-165.82 272,-171.82 272,-171.82 272,-258.24 272,-258.24 272,-264.24 266,-270.24 260,-270.24 260,-270.24 156,-270.24 156,-270.24 150,-270.24 144,-264.24 144,-258.24 144,-258.24 144,-171.82 144,-171.82 144,-165.82 150,-159.82 156,-159.82"/>
<text text-anchor="middle" x="208" y="-252.94" font-family="Arial" font-size="14.00">Skin_u</text>
<text text-anchor="middle" x="208" y="-237.19" font-family="Arial" font-size="14.00">[PBPKO:00455]</text>
</a>
</g>
</g>
<g id="clust10" class="cluster">
<title>cluster_Skin_sc_e</title>
<g id="a_clust10"><a xlink:href="#compartment-Skin_sc_e" xlink:title="Skin_sc_e&#10;[PBPKO:00458]">
<path fill="lightblue" stroke="black" d="M33,-9.3C33,-9.3 137,-9.3 137,-9.3 143,-9.3 149,-15.3 149,-21.3 149,-21.3 149,-107.72 149,-107.72 149,-113.72 143,-119.72 137,-119.72 137,-119.72 33,-119.72 33,-119.72 27,-119.72 21,-113.72 21,-107.72 21,-107.72 21,-21.3 21,-21.3 21,-15.3 27,-9.3 33,-9.3"/>
<text text-anchor="middle" x="85" y="-102.42" font-family="Arial" font-size="14.00">Skin_sc_e</text>
<text text-anchor="middle" x="85" y="-86.67" font-family="Arial" font-size="14.00">[PBPKO:00458]</text>
</a>
</g>
</g>
<g id="clust11" class="cluster">
<title>cluster_Skin_sc_u</title>
<g id="a_clust11"><a xlink:href="#compartment-Skin_sc_u" xlink:title="Skin_sc_u&#10;[PBPKO:00457]">
<path fill="lightblue" stroke="black" d="M188,-9.3C188,-9.3 292,-9.3 292,-9.3 298,-9.3 304,-15.3 304,-21.3 304,-21.3 304,-107.72 304,-107.72 304,-113.72 298,-119.72 292,-119.72 292,-119.72 188,-119.72 188,-119.72 182,-119.72 176,-113.72 176,-107.72 176,-107.72 176,-21.3 176,-21.3 176,-15.3 182,-9.3 188,-9.3"/>
<text text-anchor="middle" x="240" y="-102.42" font-family="Arial" font-size="14.00">Skin_sc_u</text>
<text text-anchor="middle" x="240" y="-86.67" font-family="Arial" font-size="14.00">[PBPKO:00457]</text>
</a>
</g>
</g>
<g id="clust12" class="cluster">
<title>cluster_Poor</title>
<g id="a_clust12"><a xlink:href="#compartment-Poor" xlink:title="Poor&#10;[PBPKO:00454]">
<path fill="lightblue" stroke="black" d="M428,-159.82C428,-159.82 532,-159.82 532,-159.82 538,-159.82 544,-165.82 544,-171.82 544,-171.82 544,-258.24 544,-258.24 544,-264.24 538,-270.24 532,-270.24 532,-270.24 428,-270.24 428,-270.24 422,-270.24 416,-264.24 416,-258.24 416,-258.24 416,-171.82 416,-171.82 416,-165.82 422,-159.82 428,-159.82"/>
<text text-anchor="middle" x="480" y="-252.94" font-family="Arial" font-size="14.00">Poor</text>
<text text-anchor="middle" x="480" y="-237.19" font-family="Arial" font-size="14.00">[PBPKO:00454]</text>
</a>
</g>
</g>
<g id="clust13" class="cluster">
<title>cluster_Gut</title>
<g id="a_clust13"><a xlink:href="#compartment-Gut" xlink:title="Gut&#10;[PBPKO:00477]">
<path fill="lightblue" stroke="black" d="M892,-310.34C892,-310.34 996,-310.34 996,-310.34 1002,-310.34 1008,-316.34 1008,-322.34 1008,-322.34 1008,-408.75 1008,-408.75 1008,-414.75 1002,-420.75 996,-420.75 996,-420.75 892,-420.75 892,-420.75 886,-420.75 880,-414.75 880,-408.75 880,-408.75 880,-322.34 880,-322.34 880,-316.34 886,-310.34 892,-310.34"/>
<text text-anchor="middle" x="944" y="-403.45" font-family="Arial" font-size="14.00">Gut</text>
<text text-anchor="middle" x="944" y="-387.7" font-family="Arial" font-size="14.00">[PBPKO:00477]</text>
</a>
</g>
</g>
<!-- QAir -->
<g id="node1" class="node">
<title>QAir</title>
<g id="a_node1"><a xlink:href="#species-QAir" xlink:title="QAir&#10;[PBPKO:00633]">
<path fill="gold" stroke="black" d="M593,-513.05C593,-513.05 505,-513.05 505,-513.05 499,-513.05 493,-507.05 493,-501.05 493,-501.05 493,-485.55 493,-485.55 493,-479.55 499,-473.55 505,-473.55 505,-473.55 593,-473.55 593,-473.55 599,-473.55 605,-479.55 605,-485.55 605,-485.55 605,-501.05 605,-501.05 605,-507.05 599,-513.05 593,-513.05"/>
<text text-anchor="middle" x="549" y="-495.75" font-family="Arial" font-size="14.00">QAir</text>
<text text-anchor="middle" x="549" y="-480" font-family="Arial" font-size="14.00">[PBPKO:00633]</text>
</a>
</g>
</g>
<!-- QArt -->
<g id="node7" class="node">
<title>QArt</title>
<g id="a_node7"><a xlink:href="#species-QArt" xlink:title="QArt&#10;[PBPKO:00631]">
<path fill="gold" stroke="black" d="M593,-362.05C593,-362.05 505,-362.05 505,-362.05 499,-362.05 493,-356.05 493,-350.05 493,-350.05 493,-334.55 493,-334.55 493,-328.55 499,-322.55 505,-322.55 505,-322.55 593,-322.55 593,-322.55 599,-322.55 605,-328.55 605,-334.55 605,-334.55 605,-350.05 605,-350.05 605,-356.05 599,-362.05 593,-362.05"/>
<text text-anchor="middle" x="549" y="-344.75" font-family="Arial" font-size="14.00">QArt</text>
<text text-anchor="middle" x="549" y="-329" font-family="Arial" font-size="14.00">[PBPKO:00631]</text>
</a>
</g>
</g>
<!-- QAir&#45;&gt;QArt -->
<g id="edge1" class="edge">
<title>QAir&#45;&gt;QArt</title>
<path fill="none" stroke="black" d="M538.52,-473.28C534.81,-465.54 531.11,-456.36 529.25,-447.55 523.96,-422.45 530.26,-393.82 537.12,-372.92"/>
<polygon fill="black" stroke="black" points="540.38,-374.2 540.41,-363.61 533.78,-371.87 540.38,-374.2"/>
<text text-anchor="middle" x="538.62" y="-434.25" font-family="Times New Roman,serif" font-size="14.00">_J1</text>
</g>
<!-- QExcret -->
<g id="node2" class="node">
<title>QExcret</title>
<g id="a_node2"><a xlink:href="#species-QExcret" xlink:title="QExcret&#10;[PBPKO:00274]">
<path fill="gold" stroke="black" d="M852,-212.05C852,-212.05 764,-212.05 764,-212.05 758,-212.05 752,-206.05 752,-200.05 752,-200.05 752,-184.55 752,-184.55 752,-178.55 758,-172.55 764,-172.55 764,-172.55 852,-172.55 852,-172.55 858,-172.55 864,-178.55 864,-184.55 864,-184.55 864,-200.05 864,-200.05 864,-206.05 858,-212.05 852,-212.05"/>
<text text-anchor="middle" x="808" y="-194.75" font-family="Arial" font-size="14.00">QExcret</text>
<text text-anchor="middle" x="808" y="-179" font-family="Arial" font-size="14.00">[PBPKO:00274]</text>
</a>
</g>
</g>
<!-- QFat -->
<g id="node3" class="node">
<title>QFat</title>
<g id="a_node3"><a xlink:href="#species-QFat" xlink:title="QFat&#10;[PBPKO:00550]">
<path fill="gold" stroke="black" d="M388,-212.05C388,-212.05 300,-212.05 300,-212.05 294,-212.05 288,-206.05 288,-200.05 288,-200.05 288,-184.55 288,-184.55 288,-178.55 294,-172.55 300,-172.55 300,-172.55 388,-172.55 388,-172.55 394,-172.55 400,-178.55 400,-184.55 400,-184.55 400,-200.05 400,-200.05 400,-206.05 394,-212.05 388,-212.05"/>
<text text-anchor="middle" x="344" y="-194.75" font-family="Arial" font-size="14.00">QFat</text>
<text text-anchor="middle" x="344" y="-179" font-family="Arial" font-size="14.00">[PBPKO:00550]</text>
</a>
</g>
</g>
<!-- QVen -->
<g id="node8" class="node">
<title>QVen</title>
<g id="a_node8"><a xlink:href="#species-QVen" xlink:title="QVen&#10;[PBPKO:00632]">
<path fill="gold" stroke="black" d="M524,-61.05C524,-61.05 436,-61.05 436,-61.05 430,-61.05 424,-55.05 424,-49.05 424,-49.05 424,-33.55 424,-33.55 424,-27.55 430,-21.55 436,-21.55 436,-21.55 524,-21.55 524,-21.55 530,-21.55 536,-27.55 536,-33.55 536,-33.55 536,-49.05 536,-49.05 536,-55.05 530,-61.05 524,-61.05"/>
<text text-anchor="middle" x="480" y="-43.75" font-family="Arial" font-size="14.00">QVen</text>
<text text-anchor="middle" x="480" y="-28" font-family="Arial" font-size="14.00">[PBPKO:00632]</text>
</a>
</g>
</g>
<!-- QFat&#45;&gt;QVen -->
<g id="edge2" class="edge">
<title>QFat&#45;&gt;QVen</title>
<path fill="none" stroke="black" d="M361.5,-172.12C385.27,-146.08 427.89,-99.39 455.02,-69.67"/>
<polygon fill="black" stroke="black" points="457.39,-72.26 461.55,-62.52 452.22,-67.54 457.39,-72.26"/>
<text text-anchor="middle" x="409.19" y="-133.25" font-family="Times New Roman,serif" font-size="14.00">_J3</text>
</g>
<!-- QRich -->
<g id="node4" class="node">
<title>QRich</title>
<g id="a_node4"><a xlink:href="#species-QRich" xlink:title="QRich&#10;[PBPKO:00629]">
<path fill="gold" stroke="black" d="M716,-212.05C716,-212.05 628,-212.05 628,-212.05 622,-212.05 616,-206.05 616,-200.05 616,-200.05 616,-184.55 616,-184.55 616,-178.55 622,-172.55 628,-172.55 628,-172.55 716,-172.55 716,-172.55 722,-172.55 728,-178.55 728,-184.55 728,-184.55 728,-200.05 728,-200.05 728,-206.05 722,-212.05 716,-212.05"/>
<text text-anchor="middle" x="672" y="-194.75" font-family="Arial" font-size="14.00">QRich</text>
<text text-anchor="middle" x="672" y="-179" font-family="Arial" font-size="14.00">[PBPKO:00629]</text>
</a>
</g>
</g>
<!-- QRich&#45;&gt;QVen -->
<g id="edge3" class="edge">
<title>QRich&#45;&gt;QVen</title>
<path fill="none" stroke="black" d="M647.29,-172.12C613.16,-145.64 551.49,-97.78 513.31,-68.15"/>
<polygon fill="black" stroke="black" points="515.85,-65.69 505.81,-62.33 511.56,-71.22 515.85,-65.69"/>
<text text-anchor="middle" x="619.27" y="-133.25" font-family="Times New Roman,serif" font-size="14.00">_J5</text>
</g>
<!-- QLiver -->
<g id="node5" class="node">
<title>QLiver</title>
<g id="a_node5"><a xlink:href="#species-QLiver" xlink:title="QLiver&#10;[PBPKO:00497]">
<path fill="gold" stroke="black" d="M988,-212.05C988,-212.05 900,-212.05 900,-212.05 894,-212.05 888,-206.05 888,-200.05 888,-200.05 888,-184.55 888,-184.55 888,-178.55 894,-172.55 900,-172.55 900,-172.55 988,-172.55 988,-172.55 994,-172.55 1000,-178.55 1000,-184.55 1000,-184.55 1000,-200.05 1000,-200.05 1000,-206.05 994,-212.05 988,-212.05"/>
<text text-anchor="middle" x="944" y="-194.75" font-family="Arial" font-size="14.00">QLiver</text>
<text text-anchor="middle" x="944" y="-179" font-family="Arial" font-size="14.00">[PBPKO:00497]</text>
</a>
</g>
</g>
<!-- QMetab -->
<g id="node6" class="node">
<title>QMetab</title>
<g id="a_node6"><a xlink:href="#species-QMetab" xlink:title="QMetab&#10;[PBPKO:00058]">
<path fill="gold" stroke="black" d="M988,-61.05C988,-61.05 900,-61.05 900,-61.05 894,-61.05 888,-55.05 888,-49.05 888,-49.05 888,-33.55 888,-33.55 888,-27.55 894,-21.55 900,-21.55 900,-21.55 988,-21.55 988,-21.55 994,-21.55 1000,-27.55 1000,-33.55 1000,-33.55 1000,-49.05 1000,-49.05 1000,-55.05 994,-61.05 988,-61.05"/>
<text text-anchor="middle" x="944" y="-43.75" font-family="Arial" font-size="14.00">QMetab</text>
<text text-anchor="middle" x="944" y="-28" font-family="Arial" font-size="14.00">[PBPKO:00058]</text>
</a>
</g>
</g>
<!-- QLiver&#45;&gt;QMetab -->
<g id="edge4" class="edge">
<title>QLiver&#45;&gt;QMetab</title>
<path fill="none" stroke="black" d="M944,-172.12C944,-146.98 944,-102.57 944,-72.79"/>
<polygon fill="black" stroke="black" points="947.5,-72.91 944,-62.91 940.5,-72.91 947.5,-72.91"/>
<text text-anchor="middle" x="956.75" y="-133.25" font-family="Times New Roman,serif" font-size="14.00">_J20</text>
</g>
<!-- QLiver&#45;&gt;QVen -->
<g id="edge5" class="edge">
<title>QLiver&#45;&gt;QVen</title>
<path fill="none" stroke="black" d="M896.61,-172.13C889.73,-169.5 882.7,-166.9 876,-164.55 761.54,-124.43 626.11,-84.14 546.96,-61.3"/>
<polygon fill="black" stroke="black" points="548.21,-58.01 537.63,-58.61 546.27,-64.74 548.21,-58.01"/>
<text text-anchor="middle" x="832.05" y="-133.25" font-family="Times New Roman,serif" font-size="14.00">_J9</text>
</g>
<!-- QArt&#45;&gt;QAir -->
<g id="edge6" class="edge">
<title>QArt&#45;&gt;QAir</title>
<path fill="none" stroke="black" d="M549,-362.4C549,-387.51 549,-431.91 549,-461.72"/>
<polygon fill="black" stroke="black" points="545.5,-461.61 549,-471.61 552.5,-461.61 545.5,-461.61"/>
<text text-anchor="middle" x="558.38" y="-434.25" font-family="Times New Roman,serif" font-size="14.00">_J0</text>
</g>
<!-- QArt&#45;&gt;QExcret -->
<g id="edge7" class="edge">
<title>QArt&#45;&gt;QExcret</title>
<path fill="none" stroke="black" d="M605.24,-323.42C644.81,-309.4 697.99,-287.58 740,-259.55 756.31,-248.67 772.14,-233.6 784.42,-220.58"/>
<polygon fill="black" stroke="black" points="786.74,-223.23 790.92,-213.5 781.58,-218.49 786.74,-223.23"/>
<text text-anchor="middle" x="713.63" y="-284.25" font-family="Times New Roman,serif" font-size="14.00">_J21</text>
</g>
<!-- QArt&#45;&gt;QFat -->
<g id="edge8" class="edge">
<title>QArt&#45;&gt;QFat</title>
<path fill="none" stroke="black" d="M511.73,-322.16C483.29,-306.84 443.74,-283.93 412,-259.55 396.92,-247.96 381.62,-233.36 369.36,-220.82"/>
<polygon fill="black" stroke="black" points="371.9,-218.41 362.45,-213.62 366.85,-223.26 371.9,-218.41"/>
<text text-anchor="middle" x="475.76" y="-284.25" font-family="Times New Roman,serif" font-size="14.00">_J2</text>
</g>
<!-- QArt&#45;&gt;QRich -->
<g id="edge9" class="edge">
<title>QArt&#45;&gt;QRich</title>
<path fill="none" stroke="black" d="M565.26,-322.17C571.73,-314.53 579.24,-305.64 586,-297.55 607.62,-271.67 632.07,-241.99 649.36,-220.93"/>
<polygon fill="black" stroke="black" points="651.93,-223.31 655.57,-213.36 646.52,-218.87 651.93,-223.31"/>
<text text-anchor="middle" x="607.14" y="-284.25" font-family="Times New Roman,serif" font-size="14.00">_J4</text>
</g>
<!-- QArt&#45;&gt;QLiver -->
<g id="edge10" class="edge">
<title>QArt&#45;&gt;QLiver</title>
<path fill="none" stroke="black" d="M605.28,-336.4C673.24,-328.49 789.22,-308.49 876,-259.55 893.43,-249.72 909.62,-234.31 921.83,-220.83"/>
<polygon fill="black" stroke="black" points="924.32,-223.3 928.25,-213.47 919.04,-218.7 924.32,-223.3"/>
<text text-anchor="middle" x="836" y="-284.25" font-family="Times New Roman,serif" font-size="14.00">_J8</text>
</g>
<!-- QSkin_e -->
<g id="node9" class="node">
<title>QSkin_e</title>
<g id="a_node9"><a xlink:href="#species-QSkin_e" xlink:title="QSkin_e&#10;[PBPKO:00638]">
<path fill="gold" stroke="black" d="M116,-212.05C116,-212.05 28,-212.05 28,-212.05 22,-212.05 16,-206.05 16,-200.05 16,-200.05 16,-184.55 16,-184.55 16,-178.55 22,-172.55 28,-172.55 28,-172.55 116,-172.55 116,-172.55 122,-172.55 128,-178.55 128,-184.55 128,-184.55 128,-200.05 128,-200.05 128,-206.05 122,-212.05 116,-212.05"/>
<text text-anchor="middle" x="72" y="-194.75" font-family="Arial" font-size="14.00">QSkin_e</text>
<text text-anchor="middle" x="72" y="-179" font-family="Arial" font-size="14.00">[PBPKO:00638]</text>
</a>
</g>
</g>
<!-- QArt&#45;&gt;QSkin_e -->
<g id="edge11" class="edge">
<title>QArt&#45;&gt;QSkin_e</title>
<path fill="none" stroke="black" d="M492.74,-340.7C410.3,-337.57 254.12,-322.9 140,-259.55 122.5,-249.84 106.31,-234.44 94.12,-220.93"/>
<polygon fill="black" stroke="black" points="96.9,-218.8 87.7,-213.54 91.62,-223.39 96.9,-218.8"/>
<text text-anchor="middle" x="235.7" y="-284.25" font-family="Times New Roman,serif" font-size="14.00">_J15</text>
</g>
<!-- QSkin_u -->
<g id="node10" class="node">
<title>QSkin_u</title>
<g id="a_node10"><a xlink:href="#species-QSkin_u" xlink:title="QSkin_u&#10;[PBPKO:00637]">
<path fill="gold" stroke="black" d="M252,-212.05C252,-212.05 164,-212.05 164,-212.05 158,-212.05 152,-206.05 152,-200.05 152,-200.05 152,-184.55 152,-184.55 152,-178.55 158,-172.55 164,-172.55 164,-172.55 252,-172.55 252,-172.55 258,-172.55 264,-178.55 264,-184.55 264,-184.55 264,-200.05 264,-200.05 264,-206.05 258,-212.05 252,-212.05"/>
<text text-anchor="middle" x="208" y="-194.75" font-family="Arial" font-size="14.00">QSkin_u</text>
<text text-anchor="middle" x="208" y="-179" font-family="Arial" font-size="14.00">[PBPKO:00637]</text>
</a>
</g>
</g>
<!-- QArt&#45;&gt;QSkin_u -->
<g id="edge12" class="edge">
<title>QArt&#45;&gt;QSkin_u</title>
<path fill="none" stroke="black" d="M492.75,-332.61C435.22,-321.92 344.77,-299.99 276,-259.55 258.87,-249.47 242.79,-234.19 230.57,-220.84"/>
<polygon fill="black" stroke="black" points="233.38,-218.73 224.13,-213.56 228.13,-223.37 233.38,-218.73"/>
<text text-anchor="middle" x="366.41" y="-284.25" font-family="Times New Roman,serif" font-size="14.00">_J11</text>
</g>
<!-- QPoor -->
<g id="node13" class="node">
<title>QPoor</title>
<g id="a_node13"><a xlink:href="#species-QPoor" xlink:title="QPoor&#10;[PBPKO:00630]">
<path fill="gold" stroke="black" d="M524,-212.05C524,-212.05 436,-212.05 436,-212.05 430,-212.05 424,-206.05 424,-200.05 424,-200.05 424,-184.55 424,-184.55 424,-178.55 430,-172.55 436,-172.55 436,-172.55 524,-172.55 524,-172.55 530,-172.55 536,-178.55 536,-184.55 536,-184.55 536,-200.05 536,-200.05 536,-206.05 530,-212.05 524,-212.05"/>
<text text-anchor="middle" x="480" y="-194.75" font-family="Arial" font-size="14.00">QPoor</text>
<text text-anchor="middle" x="480" y="-179" font-family="Arial" font-size="14.00">[PBPKO:00630]</text>
</a>
</g>
</g>
<!-- QArt&#45;&gt;QPoor -->
<g id="edge13" class="edge">
<title>QArt&#45;&gt;QPoor</title>
<path fill="none" stroke="black" d="M540.12,-322.25C528.32,-296.94 507.36,-251.98 493.57,-222.41"/>
<polygon fill="black" stroke="black" points="496.88,-221.23 489.48,-213.64 490.54,-224.18 496.88,-221.23"/>
<text text-anchor="middle" x="536.06" y="-284.25" font-family="Times New Roman,serif" font-size="14.00">_J6</text>
</g>
<!-- QVen&#45;&gt;QArt -->
<g id="edge14" class="edge">
<title>QVen&#45;&gt;QArt</title>
<path fill="none" stroke="black" d="M494.59,-61.31C511.24,-84.3 537.52,-124.86 548,-164.55 561.19,-214.53 557.46,-275.27 553.36,-310.96"/>
<polygon fill="black" stroke="black" points="549.93,-310.2 552.16,-320.55 556.87,-311.06 549.93,-310.2"/>
<text text-anchor="middle" x="569.93" y="-187.25" font-family="Times New Roman,serif" font-size="14.00">_J19</text>
</g>
<!-- QSkin_e&#45;&gt;QVen -->
<g id="edge15" class="edge">
<title>QSkin_e&#45;&gt;QVen</title>
<path fill="none" stroke="black" d="M120.64,-172.1C127.14,-169.55 133.73,-166.98 140,-164.55 160.85,-156.45 167.75,-157.93 187,-146.55 196.77,-140.77 196.3,-135.04 206.5,-130.05 247.91,-109.76 263.79,-121.65 308,-108.55 348.14,-96.65 392.18,-79.61 425.65,-65.79"/>
<polygon fill="black" stroke="black" points="426.84,-69.08 434.73,-62.01 424.15,-62.62 426.84,-69.08"/>
<text text-anchor="middle" x="219.25" y="-133.25" font-family="Times New Roman,serif" font-size="14.00">_J16</text>
</g>
<!-- QSkin_sc_e -->
<g id="node11" class="node">
<title>QSkin_sc_e</title>
<g id="a_node11"><a xlink:href="#species-QSkin_sc_e" xlink:title="QSkin_sc_e&#10;[PBPKO:00640]">
<path fill="gold" stroke="black" d="M129,-61.05C129,-61.05 41,-61.05 41,-61.05 35,-61.05 29,-55.05 29,-49.05 29,-49.05 29,-33.55 29,-33.55 29,-27.55 35,-21.55 41,-21.55 41,-21.55 129,-21.55 129,-21.55 135,-21.55 141,-27.55 141,-33.55 141,-33.55 141,-49.05 141,-49.05 141,-55.05 135,-61.05 129,-61.05"/>
<text text-anchor="middle" x="85" y="-43.75" font-family="Arial" font-size="14.00">QSkin_sc_e</text>
<text text-anchor="middle" x="85" y="-28" font-family="Arial" font-size="14.00">[PBPKO:00640]</text>
</a>
</g>
</g>
<!-- QSkin_e&#45;&gt;QSkin_sc_e -->
<g id="edge16" class="edge">
<title>QSkin_e&#45;&gt;QSkin_sc_e</title>
<path fill="none" stroke="black" d="M60.6,-172.39C56.56,-164.66 52.53,-155.46 50.5,-146.55 48.87,-139.4 49.13,-137.25 50.5,-130.05 54.33,-109.86 62.69,-88.38 70.23,-71.72"/>
<polygon fill="black" stroke="black" points="73.29,-73.44 74.36,-62.9 66.95,-70.47 73.29,-73.44"/>
<text text-anchor="middle" x="63.25" y="-133.25" font-family="Times New Roman,serif" font-size="14.00">_J17</text>
</g>
<!-- QSkin_u&#45;&gt;QVen -->
<g id="edge17" class="edge">
<title>QSkin_u&#45;&gt;QVen</title>
<path fill="none" stroke="black" d="M243,-172.12C292.07,-145.25 381.31,-96.36 435.18,-66.85"/>
<polygon fill="black" stroke="black" points="436.72,-70 443.8,-62.13 433.35,-63.86 436.72,-70"/>
<text text-anchor="middle" x="332.39" y="-133.25" font-family="Times New Roman,serif" font-size="14.00">_J12</text>
</g>
<!-- QSkin_sc_u -->
<g id="node12" class="node">
<title>QSkin_sc_u</title>
<g id="a_node12"><a xlink:href="#species-QSkin_sc_u" xlink:title="QSkin_sc_u&#10;[PBPKO:00639]">
<path fill="gold" stroke="black" d="M284,-61.05C284,-61.05 196,-61.05 196,-61.05 190,-61.05 184,-55.05 184,-49.05 184,-49.05 184,-33.55 184,-33.55 184,-27.55 190,-21.55 196,-21.55 196,-21.55 284,-21.55 284,-21.55 290,-21.55 296,-27.55 296,-33.55 296,-33.55 296,-49.05 296,-49.05 296,-55.05 290,-61.05 284,-61.05"/>
<text text-anchor="middle" x="240" y="-43.75" font-family="Arial" font-size="14.00">QSkin_sc_u</text>
<text text-anchor="middle" x="240" y="-28" font-family="Arial" font-size="14.00">[PBPKO:00639]</text>
</a>
</g>
</g>
<!-- QSkin_u&#45;&gt;QSkin_sc_u -->
<g id="edge18" class="edge">
<title>QSkin_u&#45;&gt;QSkin_sc_u</title>
<path fill="none" stroke="black" d="M222.92,-172.34C228.05,-164.75 233.19,-155.66 236,-146.55 243.43,-122.42 243.96,-93.65 242.89,-72.45"/>
<polygon fill="black" stroke="black" points="246.4,-72.5 242.25,-62.75 239.42,-72.96 246.4,-72.5"/>
<text text-anchor="middle" x="252.71" y="-133.25" font-family="Times New Roman,serif" font-size="14.00">_J13</text>
</g>
<!-- QSkin_sc_e&#45;&gt;QSkin_e -->
<g id="edge19" class="edge">
<title>QSkin_sc_e&#45;&gt;QSkin_e</title>
<path fill="none" stroke="black" d="M83.36,-61.51C81.57,-82.43 78.61,-116.87 76,-146.55 75.6,-151.14 75.17,-155.99 74.74,-160.74"/>
<polygon fill="black" stroke="black" points="71.26,-160.36 73.86,-170.63 78.24,-160.98 71.26,-160.36"/>
<text text-anchor="middle" x="89.99" y="-133.25" font-family="Times New Roman,serif" font-size="14.00">_J18</text>
</g>
<!-- QSkin_sc_u&#45;&gt;QSkin_u -->
<g id="edge20" class="edge">
<title>QSkin_sc_u&#45;&gt;QSkin_u</title>
<path fill="none" stroke="black" d="M214.87,-61.54C196.18,-77.55 172.15,-102.17 161.5,-130.05 156.81,-142.33 162.6,-154.22 171.51,-164.2"/>
<polygon fill="black" stroke="black" points="168.89,-166.54 178.48,-171.05 173.8,-161.55 168.89,-166.54"/>
<text text-anchor="middle" x="174.25" y="-133.25" font-family="Times New Roman,serif" font-size="14.00">_J14</text>
</g>
<!-- QPoor&#45;&gt;QVen -->
<g id="edge21" class="edge">
<title>QPoor&#45;&gt;QVen</title>
<path fill="none" stroke="black" d="M480,-172.12C480,-146.98 480,-102.57 480,-72.79"/>
<polygon fill="black" stroke="black" points="483.5,-72.91 480,-62.91 476.5,-72.91 483.5,-72.91"/>
<text text-anchor="middle" x="489.38" y="-133.25" font-family="Times New Roman,serif" font-size="14.00">_J7</text>
</g>
<!-- QGut -->
<g id="node14" class="node">
<title>QGut</title>
<g id="a_node14"><a xlink:href="#species-QGut" xlink:title="QGut&#10;[PBPKO:00496]">
<path fill="gold" stroke="black" d="M988,-362.05C988,-362.05 900,-362.05 900,-362.05 894,-362.05 888,-356.05 888,-350.05 888,-350.05 888,-334.55 888,-334.55 888,-328.55 894,-322.55 900,-322.55 900,-322.55 988,-322.55 988,-322.55 994,-322.55 1000,-328.55 1000,-334.55 1000,-334.55 1000,-350.05 1000,-350.05 1000,-356.05 994,-362.05 988,-362.05"/>
<text text-anchor="middle" x="944" y="-344.75" font-family="Arial" font-size="14.00">QGut</text>
<text text-anchor="middle" x="944" y="-329" font-family="Arial" font-size="14.00">[PBPKO:00496]</text>
</a>
</g>
</g>
<!-- QGut&#45;&gt;QLiver -->
<g id="edge22" class="edge">
<title>QGut&#45;&gt;QLiver</title>
<path fill="none" stroke="black" d="M944,-322.25C944,-297.28 944,-253.16 944,-223.58"/>
<polygon fill="black" stroke="black" points="947.5,-223.78 944,-213.78 940.5,-223.78 947.5,-223.78"/>
<text text-anchor="middle" x="956.75" y="-284.25" font-family="Times New Roman,serif" font-size="14.00">_J10</text>
</g>
</g>
</svg>
