<?xml version="1.0" encoding="UTF-8" standalone="no"?>
<!DOCTYPE svg PUBLIC "-//W3C//DTD SVG 1.1//EN"
 "http://www.w3.org/Graphics/SVG/1.1/DTD/svg11.dtd">
<!-- Generated by graphviz version 12.2.1 (20241206.2353)
 -->
<!-- Pages: 1 -->
<svg width="501pt" height="288pt"
 viewBox="0.00 0.00 500.97 288.00" xmlns="http://www.w3.org/2000/svg" xmlns:xlink="http://www.w3.org/1999/xlink">
<g id="graph0" class="graph" transform="scale(0.50501 0.50501) rotate(0) translate(4 566.29)">
<polygon fill="white" stroke="none" points="-4,4 -4,-566.29 988,-566.29 988,4 -4,4"/>
<g id="clust1" class="cluster">
<title>cluster_Air</title>
<g id="a_clust1"><a xlink:href="#compartment-Air" xlink:title="Air&#10;[PBPKO:00448]">
<path fill="lightblue" stroke="black" d="M465,-446.34C465,-446.34 569,-446.34 569,-446.34 575,-446.34 581,-452.34 581,-458.34 581,-458.34 581,-541.28 581,-541.28 581,-547.28 575,-553.28 569,-553.28 569,-553.28 465,-553.28 465,-553.28 459,-553.28 453,-547.28 453,-541.28 453,-541.28 453,-458.34 453,-458.34 453,-452.34 459,-446.34 465,-446.34"/>
<text text-anchor="middle" x="517" y="-535.98" font-family="Arial" font-size="14.00">Air</text>
<text text-anchor="middle" x="517" y="-520.23" font-family="Arial" font-size="14.00">[PBPKO:00448]</text>
</a>
</g>
</g>
<g id="clust2" class="cluster">
<title>cluster_Urine</title>
<g id="a_clust2"><a xlink:href="#compartment-Urine" xlink:title="Urine&#10;[PBPKO:00556]">
<path fill="lightblue" stroke="black" d="M724,-154.78C724,-154.78 828,-154.78 828,-154.78 834,-154.78 840,-160.78 840,-166.78 840,-166.78 840,-249.72 840,-249.72 840,-255.72 834,-261.72 828,-261.72 828,-261.72 724,-261.72 724,-261.72 718,-261.72 712,-255.72 712,-249.72 712,-249.72 712,-166.78 712,-166.78 712,-160.78 718,-154.78 724,-154.78"/>
<text text-anchor="middle" x="776" y="-244.42" font-family="Arial" font-size="14.00">Urine</text>
<text text-anchor="middle" x="776" y="-228.67" font-family="Arial" font-size="14.00">[PBPKO:00556]</text>
</a>
</g>
</g>
<g id="clust3" class="cluster">
<title>cluster_Fat</title>
<g id="a_clust3"><a xlink:href="#compartment-Fat" xlink:title="Fat&#10;[PBPKO:00460]">
<path fill="lightblue" stroke="black" d="M260,-154.78C260,-154.78 364,-154.78 364,-154.78 370,-154.78 376,-160.78 376,-166.78 376,-166.78 376,-249.72 376,-249.72 376,-255.72 370,-261.72 364,-261.72 364,-261.72 260,-261.72 260,-261.72 254,-261.72 248,-255.72 248,-249.72 248,-249.72 248,-166.78 248,-166.78 248,-160.78 254,-154.78 260,-154.78"/>
<text text-anchor="middle" x="312" y="-244.42" font-family="Arial" font-size="14.00">Fat</text>
<text text-anchor="middle" x="312" y="-228.67" font-family="Arial" font-size="14.00">[PBPKO:00460]</text>
</a>
</g>
</g>
<g id="clust4" class="cluster">
<title>cluster_Rich</title>
<g id="a_clust4"><a xlink:href="#compartment-Rich" xlink:title="Rich&#10;[PBPKO:00453]">
<path fill="lightblue" stroke="black" d="M588,-154.78C588,-154.78 692,-154.78 692,-154.78 698,-154.78 704,-160.78 704,-166.78 704,-166.78 704,-249.72 704,-249.72 704,-255.72 698,-261.72 692,-261.72 692,-261.72 588,-261.72 588,-261.72 582,-261.72 576,-255.72 576,-249.72 576,-249.72 576,-166.78 576,-166.78 576,-160.78 582,-154.78 588,-154.78"/>
<text text-anchor="middle" x="640" y="-244.42" font-family="Arial" font-size="14.00">Rich</text>
<text text-anchor="middle" x="640" y="-228.67" font-family="Arial" font-size="14.00">[PBPKO:00453]</text>
</a>
</g>
</g>
<g id="clust5" class="cluster">
<title>cluster_Liver</title>
<g id="a_clust5"><a xlink:href="#compartment-Liver" xlink:title="Liver&#10;[PBPKO:00558]">
<path fill="lightblue" stroke="black" d="M860,-9.01C860,-9.01 964,-9.01 964,-9.01 970,-9.01 976,-15.01 976,-21.01 976,-21.01 976,-249.72 976,-249.72 976,-255.72 970,-261.72 964,-261.72 964,-261.72 860,-261.72 860,-261.72 854,-261.72 848,-255.72 848,-249.72 848,-249.72 848,-21.01 848,-21.01 848,-15.01 854,-9.01 860,-9.01"/>
<text text-anchor="middle" x="912" y="-244.42" font-family="Arial" font-size="14.00">Liver</text>
<text text-anchor="middle" x="912" y="-228.67" font-family="Arial" font-size="14.00">[PBPKO:00558]</text>
</a>
</g>
</g>
<g id="clust6" class="cluster">
<title>cluster_Art</title>
<g id="a_clust6"><a xlink:href="#compartment-Art" xlink:title="Art&#10;[PBPKO:00552]">
<path fill="lightblue" stroke="black" d="M465,-300.56C465,-300.56 569,-300.56 569,-300.56 575,-300.56 581,-306.56 581,-312.56 581,-312.56 581,-395.5 581,-395.5 581,-401.5 575,-407.5 569,-407.5 569,-407.5 465,-407.5 465,-407.5 459,-407.5 453,-401.5 453,-395.5 453,-395.5 453,-312.56 453,-312.56 453,-306.56 459,-300.56 465,-300.56"/>
<text text-anchor="middle" x="517" y="-390.2" font-family="Arial" font-size="14.00">Art</text>
<text text-anchor="middle" x="517" y="-374.45" font-family="Arial" font-size="14.00">[PBPKO:00552]</text>
</a>
</g>
</g>
<g id="clust7" class="cluster">
<title>cluster_Ven</title>
<g id="a_clust7"><a xlink:href="#compartment-Ven" xlink:title="Ven&#10;[PBPKO:00561]">
<path fill="lightblue" stroke="black" d="M396,-9.01C396,-9.01 500,-9.01 500,-9.01 506,-9.01 512,-15.01 512,-21.01 512,-21.01 512,-103.95 512,-103.95 512,-109.95 506,-115.95 500,-115.95 500,-115.95 396,-115.95 396,-115.95 390,-115.95 384,-109.95 384,-103.95 384,-103.95 384,-21.01 384,-21.01 384,-15.01 390,-9.01 396,-9.01"/>
<text text-anchor="middle" x="448" y="-98.65" font-family="Arial" font-size="14.00">Ven</text>
<text text-anchor="middle" x="448" y="-82.9" font-family="Arial" font-size="14.00">[PBPKO:00561]</text>
</a>
</g>
</g>
<g id="clust8" class="cluster">
<title>cluster_Skin_e</title>
<g id="a_clust8"><a xlink:href="#compartment-Skin_e" xlink:title="Skin_e&#10;[PBPKO:00456]">
<path fill="lightblue" stroke="black" d="M20,-154.78C20,-154.78 108,-154.78 108,-154.78 114,-154.78 120,-160.78 120,-166.78 120,-166.78 120,-249.72 120,-249.72 120,-255.72 114,-261.72 108,-261.72 108,-261.72 20,-261.72 20,-261.72 14,-261.72 8,-255.72 8,-249.72 8,-249.72 8,-166.78 8,-166.78 8,-160.78 14,-154.78 20,-154.78"/>
<text text-anchor="middle" x="64" y="-244.42" font-family="Arial" font-size="14.00">Skin_e</text>
<text text-anchor="middle" x="64" y="-228.67" font-family="Arial" font-size="14.00">[PBPKO:00456]</text>
</a>
</g>
</g>
<g id="clust9" class="cluster">
<title>cluster_Skin_u</title>
<g id="a_clust9"><a xlink:href="#compartment-Skin_u" xlink:title="Skin_u&#10;[PBPKO:00455]">
<path fill="lightblue" stroke="black" d="M140,-154.78C140,-154.78 228,-154.78 228,-154.78 234,-154.78 240,-160.78 240,-166.78 240,-166.78 240,-249.72 240,-249.72 240,-255.72 234,-261.72 228,-261.72 228,-261.72 140,-261.72 140,-261.72 134,-261.72 128,-255.72 128,-249.72 128,-249.72 128,-166.78 128,-166.78 128,-160.78 134,-154.78 140,-154.78"/>
<text text-anchor="middle" x="184" y="-244.42" font-family="Arial" font-size="14.00">Skin_u</text>
<text text-anchor="middle" x="184" y="-228.67" font-family="Arial" font-size="14.00">[PBPKO:00455]</text>
</a>
</g>
</g>
<g id="clust10" class="cluster">
<title>cluster_Skin_sc_e</title>
<g id="a_clust10"><a xlink:href="#compartment-Skin_sc_e" xlink:title="Skin_sc_e&#10;[PBPKO:00458]">
<path fill="lightblue" stroke="black" d="M40,-9.01C40,-9.01 128,-9.01 128,-9.01 134,-9.01 140,-15.01 140,-21.01 140,-21.01 140,-103.95 140,-103.95 140,-109.95 134,-115.95 128,-115.95 128,-115.95 40,-115.95 40,-115.95 34,-115.95 28,-109.95 28,-103.95 28,-103.95 28,-21.01 28,-21.01 28,-15.01 34,-9.01 40,-9.01"/>
<text text-anchor="middle" x="84" y="-98.65" font-family="Arial" font-size="14.00">Skin_sc_e</text>
<text text-anchor="middle" x="84" y="-82.9" font-family="Arial" font-size="14.00">[PBPKO:00458]</text>
</a>
</g>
</g>
<g id="clust11" class="cluster">
<title>cluster_Skin_sc_u</title>
<g id="a_clust11"><a xlink:href="#compartment-Skin_sc_u" xlink:title="Skin_sc_u&#10;[PBPKO:00457]">
<path fill="lightblue" stroke="black" d="M222,-9.01C222,-9.01 310,-9.01 310,-9.01 316,-9.01 322,-15.01 322,-21.01 322,-21.01 322,-103.95 322,-103.95 322,-109.95 316,-115.95 310,-115.95 310,-115.95 222,-115.95 222,-115.95 216,-115.95 210,-109.95 210,-103.95 210,-103.95 210,-21.01 210,-21.01 210,-15.01 216,-9.01 222,-9.01"/>
<text text-anchor="middle" x="266" y="-98.65" font-family="Arial" font-size="14.00">Skin_sc_u</text>
<text text-anchor="middle" x="266" y="-82.9" font-family="Arial" font-size="14.00">[PBPKO:00457]</text>
</a>
</g>
</g>
<g id="clust12" class="cluster">
<title>cluster_Poor</title>
<g id="a_clust12"><a xlink:href="#compartment-Poor" xlink:title="Poor&#10;[PBPKO:00454]">
<path fill="lightblue" stroke="black" d="M396,-154.78C396,-154.78 500,-154.78 500,-154.78 506,-154.78 512,-160.78 512,-166.78 512,-166.78 512,-249.72 512,-249.72 512,-255.72 506,-261.72 500,-261.72 500,-261.72 396,-261.72 396,-261.72 390,-261.72 384,-255.72 384,-249.72 384,-249.72 384,-166.78 384,-166.78 384,-160.78 390,-154.78 396,-154.78"/>
<text text-anchor="middle" x="448" y="-244.42" font-family="Arial" font-size="14.00">Poor</text>
<text text-anchor="middle" x="448" y="-228.67" font-family="Arial" font-size="14.00">[PBPKO:00454]</text>
</a>
</g>
</g>
<g id="clust13" class="cluster">
<title>cluster_Gut</title>
<g id="a_clust13"><a xlink:href="#compartment-Gut" xlink:title="Gut&#10;[PBPKO:00477]">
<path fill="lightblue" stroke="black" d="M860,-300.56C860,-300.56 964,-300.56 964,-300.56 970,-300.56 976,-306.56 976,-312.56 976,-312.56 976,-395.5 976,-395.5 976,-401.5 970,-407.5 964,-407.5 964,-407.5 860,-407.5 860,-407.5 854,-407.5 848,-401.5 848,-395.5 848,-395.5 848,-312.56 848,-312.56 848,-306.56 854,-300.56 860,-300.56"/>
<text text-anchor="middle" x="912" y="-390.2" font-family="Arial" font-size="14.00">Gut</text>
<text text-anchor="middle" x="912" y="-374.45" font-family="Arial" font-size="14.00">[PBPKO:00477]</text>
</a>
</g>
</g>
<!-- QAir -->
<g id="node1" class="node">
<title>QAir</title>
<g id="a_node1"><a xlink:href="#species-QAir" xlink:title="QAir&#10;[PBPKO:00633]">
<path fill="gold" stroke="black" d="M561,-497.76C561,-497.76 473,-497.76 473,-497.76 467,-497.76 461,-491.76 461,-485.76 461,-485.76 461,-470.26 461,-470.26 461,-464.26 467,-458.26 473,-458.26 473,-458.26 561,-458.26 561,-458.26 567,-458.26 573,-464.26 573,-470.26 573,-470.26 573,-485.76 573,-485.76 573,-491.76 567,-497.76 561,-497.76"/>
<text text-anchor="middle" x="517" y="-480.46" font-family="Arial" font-size="14.00">QAir</text>
<text text-anchor="middle" x="517" y="-464.71" font-family="Arial" font-size="14.00">[PBPKO:00633]</text>
</a>
</g>
</g>
<!-- QArt -->
<g id="node7" class="node">
<title>QArt</title>
<g id="a_node7"><a xlink:href="#species-QArt" xlink:title="QArt&#10;[PBPKO:00631]">
<path fill="gold" stroke="black" d="M561,-351.76C561,-351.76 473,-351.76 473,-351.76 467,-351.76 461,-345.76 461,-339.76 461,-339.76 461,-324.26 461,-324.26 461,-318.26 467,-312.26 473,-312.26 473,-312.26 561,-312.26 561,-312.26 567,-312.26 573,-318.26 573,-324.26 573,-324.26 573,-339.76 573,-339.76 573,-345.76 567,-351.76 561,-351.76"/>
<text text-anchor="middle" x="517" y="-334.46" font-family="Arial" font-size="14.00">QArt</text>
<text text-anchor="middle" x="517" y="-318.71" font-family="Arial" font-size="14.00">[PBPKO:00631]</text>
</a>
</g>
</g>
<!-- QAir&#45;&gt;QArt -->
<g id="edge1" class="edge">
<title>QAir&#45;&gt;QArt</title>
<path fill="none" stroke="black" d="M506.1,-458.05C502.54,-450.84 499.04,-442.4 497.25,-434.26 491.99,-410.31 498,-383.02 504.73,-362.81"/>
<polygon fill="black" stroke="black" points="507.99,-364.11 508.08,-353.52 501.4,-361.74 507.99,-364.11"/>
<text text-anchor="middle" x="506.62" y="-420.96" font-family="Times New Roman,serif" font-size="14.00">_J1</text>
</g>
<!-- QExcret -->
<g id="node2" class="node">
<title>QExcret</title>
<g id="a_node2"><a xlink:href="#species-QExcret" xlink:title="QExcret&#10;[PBPKO:00274]">
<path fill="gold" stroke="black" d="M820,-205.76C820,-205.76 732,-205.76 732,-205.76 726,-205.76 720,-199.76 720,-193.76 720,-193.76 720,-178.26 720,-178.26 720,-172.26 726,-166.26 732,-166.26 732,-166.26 820,-166.26 820,-166.26 826,-166.26 832,-172.26 832,-178.26 832,-178.26 832,-193.76 832,-193.76 832,-199.76 826,-205.76 820,-205.76"/>
<text text-anchor="middle" x="776" y="-188.46" font-family="Arial" font-size="14.00">QExcret</text>
<text text-anchor="middle" x="776" y="-172.71" font-family="Arial" font-size="14.00">[PBPKO:00274]</text>
</a>
</g>
</g>
<!-- QFat -->
<g id="node3" class="node">
<title>QFat</title>
<g id="a_node3"><a xlink:href="#species-QFat" xlink:title="QFat&#10;[PBPKO:00550]">
<path fill="gold" stroke="black" d="M356,-205.76C356,-205.76 268,-205.76 268,-205.76 262,-205.76 256,-199.76 256,-193.76 256,-193.76 256,-178.26 256,-178.26 256,-172.26 262,-166.26 268,-166.26 268,-166.26 356,-166.26 356,-166.26 362,-166.26 368,-172.26 368,-178.26 368,-178.26 368,-193.76 368,-193.76 368,-199.76 362,-205.76 356,-205.76"/>
<text text-anchor="middle" x="312" y="-188.46" font-family="Arial" font-size="14.00">QFat</text>
<text text-anchor="middle" x="312" y="-172.71" font-family="Arial" font-size="14.00">[PBPKO:00550]</text>
</a>
</g>
</g>
<!-- QVen -->
<g id="node8" class="node">
<title>QVen</title>
<g id="a_node8"><a xlink:href="#species-QVen" xlink:title="QVen&#10;[PBPKO:00632]">
<path fill="gold" stroke="black" d="M492,-59.76C492,-59.76 404,-59.76 404,-59.76 398,-59.76 392,-53.76 392,-47.76 392,-47.76 392,-32.26 392,-32.26 392,-26.26 398,-20.26 404,-20.26 404,-20.26 492,-20.26 492,-20.26 498,-20.26 504,-26.26 504,-32.26 504,-32.26 504,-47.76 504,-47.76 504,-53.76 498,-59.76 492,-59.76"/>
<text text-anchor="middle" x="448" y="-42.46" font-family="Arial" font-size="14.00">QVen</text>
<text text-anchor="middle" x="448" y="-26.71" font-family="Arial" font-size="14.00">[PBPKO:00632]</text>
</a>
</g>
</g>
<!-- QFat&#45;&gt;QVen -->
<g id="edge2" class="edge">
<title>QFat&#45;&gt;QVen</title>
<path fill="none" stroke="black" d="M341.29,-165.84C350.9,-158.94 361.33,-150.74 370,-142.26 392.72,-120.01 414.45,-90.94 429.17,-69.66"/>
<polygon fill="black" stroke="black" points="432.03,-71.68 434.76,-61.45 426.24,-67.74 432.03,-71.68"/>
<text text-anchor="middle" x="393.79" y="-128.96" font-family="Times New Roman,serif" font-size="14.00">_J3</text>
</g>
<!-- QRich -->
<g id="node4" class="node">
<title>QRich</title>
<g id="a_node4"><a xlink:href="#species-QRich" xlink:title="QRich&#10;[PBPKO:00629]">
<path fill="gold" stroke="black" d="M684,-205.76C684,-205.76 596,-205.76 596,-205.76 590,-205.76 584,-199.76 584,-193.76 584,-193.76 584,-178.26 584,-178.26 584,-172.26 590,-166.26 596,-166.26 596,-166.26 684,-166.26 684,-166.26 690,-166.26 696,-172.26 696,-178.26 696,-178.26 696,-193.76 696,-193.76 696,-199.76 690,-205.76 684,-205.76"/>
<text text-anchor="middle" x="640" y="-188.46" font-family="Arial" font-size="14.00">QRich</text>
<text text-anchor="middle" x="640" y="-172.71" font-family="Arial" font-size="14.00">[PBPKO:00629]</text>
</a>
</g>
</g>
<!-- QRich&#45;&gt;QVen -->
<g id="edge3" class="edge">
<title>QRich&#45;&gt;QVen</title>
<path fill="none" stroke="black" d="M614.5,-165.88C580.65,-140.49 520.73,-95.55 482.75,-67.07"/>
<polygon fill="black" stroke="black" points="484.91,-64.31 474.81,-61.11 480.71,-69.91 484.91,-64.31"/>
<text text-anchor="middle" x="587.27" y="-128.96" font-family="Times New Roman,serif" font-size="14.00">_J5</text>
</g>
<!-- QLiver -->
<g id="node5" class="node">
<title>QLiver</title>
<g id="a_node5"><a xlink:href="#species-QLiver" xlink:title="QLiver&#10;[PBPKO:00497]">
<path fill="gold" stroke="black" d="M956,-205.76C956,-205.76 868,-205.76 868,-205.76 862,-205.76 856,-199.76 856,-193.76 856,-193.76 856,-178.26 856,-178.26 856,-172.26 862,-166.26 868,-166.26 868,-166.26 956,-166.26 956,-166.26 962,-166.26 968,-172.26 968,-178.26 968,-178.26 968,-193.76 968,-193.76 968,-199.76 962,-205.76 956,-205.76"/>
<text text-anchor="middle" x="912" y="-188.46" font-family="Arial" font-size="14.00">QLiver</text>
<text text-anchor="middle" x="912" y="-172.71" font-family="Arial" font-size="14.00">[PBPKO:00497]</text>
</a>
</g>
</g>
<!-- QMetab -->
<g id="node6" class="node">
<title>QMetab</title>
<g id="a_node6"><a xlink:href="#species-QMetab" xlink:title="QMetab&#10;[PBPKO:00058]">
<path fill="gold" stroke="black" d="M956,-59.76C956,-59.76 868,-59.76 868,-59.76 862,-59.76 856,-53.76 856,-47.76 856,-47.76 856,-32.26 856,-32.26 856,-26.26 862,-20.26 868,-20.26 868,-20.26 956,-20.26 956,-20.26 962,-20.26 968,-26.26 968,-32.26 968,-32.26 968,-47.76 968,-47.76 968,-53.76 962,-59.76 956,-59.76"/>
<text text-anchor="middle" x="912" y="-42.46" font-family="Arial" font-size="14.00">QMetab</text>
<text text-anchor="middle" x="912" y="-26.71" font-family="Arial" font-size="14.00">[PBPKO:00058]</text>
</a>
</g>
</g>
<!-- QLiver&#45;&gt;QMetab -->
<g id="edge4" class="edge">
<title>QLiver&#45;&gt;QMetab</title>
<path fill="none" stroke="black" d="M912,-165.88C912,-141.78 912,-100.07 912,-71.54"/>
<polygon fill="black" stroke="black" points="915.5,-71.72 912,-61.72 908.5,-71.72 915.5,-71.72"/>
<text text-anchor="middle" x="924.75" y="-128.96" font-family="Times New Roman,serif" font-size="14.00">_J20</text>
</g>
<!-- QLiver&#45;&gt;QVen -->
<g id="edge5" class="edge">
<title>QLiver&#45;&gt;QVen</title>
<path fill="none" stroke="black" d="M864.64,-165.77C857.75,-163.15 850.72,-160.57 844,-158.26 729.71,-118.94 594.23,-80.56 515.02,-58.93"/>
<polygon fill="black" stroke="black" points="516.26,-55.64 505.69,-56.39 514.42,-62.4 516.26,-55.64"/>
<text text-anchor="middle" x="800.11" y="-128.96" font-family="Times New Roman,serif" font-size="14.00">_J9</text>
</g>
<!-- QArt&#45;&gt;QAir -->
<g id="edge6" class="edge">
<title>QArt&#45;&gt;QAir</title>
<path fill="none" stroke="black" d="M517,-352.21C517,-376.34 517,-418.06 517,-446.57"/>
<polygon fill="black" stroke="black" points="513.5,-446.37 517,-456.37 520.5,-446.37 513.5,-446.37"/>
<text text-anchor="middle" x="526.38" y="-420.96" font-family="Times New Roman,serif" font-size="14.00">_J0</text>
</g>
<!-- QArt&#45;&gt;QExcret -->
<g id="edge7" class="edge">
<title>QArt&#45;&gt;QExcret</title>
<path fill="none" stroke="black" d="M573.28,-314.49C612.87,-301.38 666.06,-280.7 708,-253.26 724.4,-242.52 740.24,-227.46 752.5,-214.41"/>
<polygon fill="black" stroke="black" points="754.83,-217.05 758.99,-207.31 749.66,-212.33 754.83,-217.05"/>
<text text-anchor="middle" x="686.74" y="-274.96" font-family="Times New Roman,serif" font-size="14.00">_J21</text>
</g>
<!-- QArt&#45;&gt;QFat -->
<g id="edge8" class="edge">
<title>QArt&#45;&gt;QFat</title>
<path fill="none" stroke="black" d="M477.26,-311.9C448.99,-297.5 410.72,-276.33 380,-253.26 364.54,-241.64 348.97,-226.76 336.64,-214.05"/>
<polygon fill="black" stroke="black" points="339.51,-211.99 330.08,-207.16 334.44,-216.81 339.51,-211.99"/>
<text text-anchor="middle" x="439.96" y="-274.96" font-family="Times New Roman,serif" font-size="14.00">_J2</text>
</g>
<!-- QArt&#45;&gt;QRich -->
<g id="edge9" class="edge">
<title>QArt&#45;&gt;QRich</title>
<path fill="none" stroke="black" d="M533.61,-311.89C540,-304.51 547.36,-296.01 554,-288.26 575.22,-263.51 599.23,-235.22 616.47,-214.85"/>
<polygon fill="black" stroke="black" points="619.12,-217.14 622.91,-207.24 613.78,-212.61 619.12,-217.14"/>
<text text-anchor="middle" x="575.12" y="-274.96" font-family="Times New Roman,serif" font-size="14.00">_J4</text>
</g>
<!-- QArt&#45;&gt;QLiver -->
<g id="edge10" class="edge">
<title>QArt&#45;&gt;QLiver</title>
<path fill="none" stroke="black" d="M573.27,-326.94C641.22,-320.01 757.19,-301.57 844,-253.26 861.49,-243.52 877.68,-228.12 889.87,-214.62"/>
<polygon fill="black" stroke="black" points="892.37,-217.08 896.29,-207.24 887.09,-212.49 892.37,-217.08"/>
<text text-anchor="middle" x="812.5" y="-274.96" font-family="Times New Roman,serif" font-size="14.00">_J8</text>
</g>
<!-- QSkin_e -->
<g id="node9" class="node">
<title>QSkin_e</title>
<g id="a_node9"><a xlink:href="#species-QSkin_e" xlink:title="QSkin_e&#10;[&#45;]">
<path fill="gold" stroke="black" d="M100.25,-205.76C100.25,-205.76 55.75,-205.76 55.75,-205.76 49.75,-205.76 43.75,-199.76 43.75,-193.76 43.75,-193.76 43.75,-178.26 43.75,-178.26 43.75,-172.26 49.75,-166.26 55.75,-166.26 55.75,-166.26 100.25,-166.26 100.25,-166.26 106.25,-166.26 112.25,-172.26 112.25,-178.26 112.25,-178.26 112.25,-193.76 112.25,-193.76 112.25,-199.76 106.25,-205.76 100.25,-205.76"/>
<text text-anchor="middle" x="78" y="-188.46" font-family="Arial" font-size="14.00">QSkin_e</text>
<text text-anchor="middle" x="78" y="-172.71" font-family="Arial" font-size="14.00">[&#45;]</text>
</a>
</g>
</g>
<!-- QArt&#45;&gt;QSkin_e -->
<g id="edge11" class="edge">
<title>QArt&#45;&gt;QSkin_e</title>
<path fill="none" stroke="black" d="M460.57,-325.58C365.21,-315.5 177.35,-291.34 124,-253.26 110.69,-243.75 99.95,-229.13 92.21,-216.04"/>
<polygon fill="black" stroke="black" points="95.29,-214.38 87.38,-207.32 89.16,-217.77 95.29,-214.38"/>
<text text-anchor="middle" x="223.93" y="-274.96" font-family="Times New Roman,serif" font-size="14.00">_J15</text>
</g>
<!-- QSkin_u -->
<g id="node10" class="node">
<title>QSkin_u</title>
<g id="a_node10"><a xlink:href="#species-QSkin_u" xlink:title="QSkin_u&#10;[&#45;]">
<path fill="gold" stroke="black" d="M220.25,-205.76C220.25,-205.76 175.75,-205.76 175.75,-205.76 169.75,-205.76 163.75,-199.76 163.75,-193.76 163.75,-193.76 163.75,-178.26 163.75,-178.26 163.75,-172.26 169.75,-166.26 175.75,-166.26 175.75,-166.26 220.25,-166.26 220.25,-166.26 226.25,-166.26 232.25,-172.26 232.25,-178.26 232.25,-178.26 232.25,-193.76 232.25,-193.76 232.25,-199.76 226.25,-205.76 220.25,-205.76"/>
<text text-anchor="middle" x="198" y="-188.46" font-family="Arial" font-size="14.00">QSkin_u</text>
<text text-anchor="middle" x="198" y="-172.71" font-family="Arial" font-size="14.00">[&#45;]</text>
</a>
</g>
</g>
<!-- QArt&#45;&gt;QSkin_u -->
<g id="edge12" class="edge">
<title>QArt&#45;&gt;QSkin_u</title>
<path fill="none" stroke="black" d="M460.69,-326.14C401.87,-318.66 309.25,-299.9 244,-253.26 230.7,-243.75 219.96,-229.13 212.21,-216.04"/>
<polygon fill="black" stroke="black" points="215.29,-214.37 207.39,-207.32 209.17,-217.76 215.29,-214.37"/>
<text text-anchor="middle" x="317.37" y="-274.96" font-family="Times New Roman,serif" font-size="14.00">_J11</text>
</g>
<!-- QPoor -->
<g id="node13" class="node">
<title>QPoor</title>
<g id="a_node13"><a xlink:href="#species-QPoor" xlink:title="QPoor&#10;[PBPKO:00630]">
<path fill="gold" stroke="black" d="M492,-205.76C492,-205.76 404,-205.76 404,-205.76 398,-205.76 392,-199.76 392,-193.76 392,-193.76 392,-178.26 392,-178.26 392,-172.26 398,-166.26 404,-166.26 404,-166.26 492,-166.26 492,-166.26 498,-166.26 504,-172.26 504,-178.26 504,-178.26 504,-193.76 504,-193.76 504,-199.76 498,-205.76 492,-205.76"/>
<text text-anchor="middle" x="448" y="-188.46" font-family="Arial" font-size="14.00">QPoor</text>
<text text-anchor="middle" x="448" y="-172.71" font-family="Arial" font-size="14.00">[PBPKO:00630]</text>
</a>
</g>
</g>
<!-- QArt&#45;&gt;QPoor -->
<g id="edge13" class="edge">
<title>QArt&#45;&gt;QPoor</title>
<path fill="none" stroke="black" d="M507.84,-311.88C496.14,-287.46 475.77,-244.95 462.08,-216.4"/>
<polygon fill="black" stroke="black" points="465.33,-215.08 457.85,-207.57 459.02,-218.1 465.33,-215.08"/>
<text text-anchor="middle" x="504.06" y="-274.96" font-family="Times New Roman,serif" font-size="14.00">_J6</text>
</g>
<!-- QVen&#45;&gt;QArt -->
<g id="edge14" class="edge">
<title>QVen&#45;&gt;QArt</title>
<path fill="none" stroke="black" d="M463.18,-59.92C479.85,-82 505.62,-120.35 516,-158.26 529.25,-206.65 525.61,-265.56 521.5,-300.58"/>
<polygon fill="black" stroke="black" points="518.04,-300.05 520.24,-310.41 524.98,-300.93 518.04,-300.05"/>
<text text-anchor="middle" x="538.03" y="-180.96" font-family="Times New Roman,serif" font-size="14.00">_J19</text>
</g>
<!-- QSkin_e&#45;&gt;QVen -->
<g id="edge15" class="edge">
<title>QSkin_e&#45;&gt;QVen</title>
<path fill="none" stroke="black" d="M107.44,-165.87C112.8,-162.98 118.45,-160.29 124,-158.26 162.15,-144.27 177.23,-159.53 214,-142.26 224.28,-137.43 223.28,-130.69 233.5,-125.76 271.25,-107.53 286.58,-121.53 326,-107.26 355.02,-96.75 385.53,-80.18 408.78,-66.24"/>
<polygon fill="black" stroke="black" points="410.59,-69.23 417.31,-61.04 406.95,-63.26 410.59,-69.23"/>
<text text-anchor="middle" x="246.25" y="-128.96" font-family="Times New Roman,serif" font-size="14.00">_J16</text>
</g>
<!-- QSkin_sc_e -->
<g id="node11" class="node">
<title>QSkin_sc_e</title>
<g id="a_node11"><a xlink:href="#species-QSkin_sc_e" xlink:title="QSkin_sc_e&#10;[&#45;]">
<path fill="gold" stroke="black" d="M116.75,-59.76C116.75,-59.76 51.25,-59.76 51.25,-59.76 45.25,-59.76 39.25,-53.76 39.25,-47.76 39.25,-47.76 39.25,-32.26 39.25,-32.26 39.25,-26.26 45.25,-20.26 51.25,-20.26 51.25,-20.26 116.75,-20.26 116.75,-20.26 122.75,-20.26 128.75,-26.26 128.75,-32.26 128.75,-32.26 128.75,-47.76 128.75,-47.76 128.75,-53.76 122.75,-59.76 116.75,-59.76"/>
<text text-anchor="middle" x="84" y="-42.46" font-family="Arial" font-size="14.00">QSkin_sc_e</text>
<text text-anchor="middle" x="84" y="-26.71" font-family="Arial" font-size="14.00">[&#45;]</text>
</a>
</g>
</g>
<!-- QSkin_e&#45;&gt;QSkin_sc_e -->
<g id="edge16" class="edge">
<title>QSkin_e&#45;&gt;QSkin_sc_e</title>
<path fill="none" stroke="black" d="M68.34,-165.92C65.18,-158.7 62.08,-150.28 60.5,-142.26 55.73,-118.02 62.78,-90.75 70.38,-70.62"/>
<polygon fill="black" stroke="black" points="73.62,-71.94 74.13,-61.36 67.13,-69.31 73.62,-71.94"/>
<text text-anchor="middle" x="73.25" y="-128.96" font-family="Times New Roman,serif" font-size="14.00">_J17</text>
</g>
<!-- QSkin_u&#45;&gt;QVen -->
<g id="edge17" class="edge">
<title>QSkin_u&#45;&gt;QVen</title>
<path fill="none" stroke="black" d="M228.64,-165.81C233.67,-163.07 238.91,-160.44 244,-158.26 267.4,-148.23 275.97,-153.1 299,-142.26 342.41,-121.82 387.29,-89.52 416.3,-66.91"/>
<polygon fill="black" stroke="black" points="418.27,-69.82 423.95,-60.88 413.93,-64.32 418.27,-69.82"/>
<text text-anchor="middle" x="342.2" y="-128.96" font-family="Times New Roman,serif" font-size="14.00">_J12</text>
</g>
<!-- QSkin_sc_u -->
<g id="node12" class="node">
<title>QSkin_sc_u</title>
<g id="a_node12"><a xlink:href="#species-QSkin_sc_u" xlink:title="QSkin_sc_u&#10;[&#45;]">
<path fill="gold" stroke="black" d="M298.75,-59.76C298.75,-59.76 233.25,-59.76 233.25,-59.76 227.25,-59.76 221.25,-53.76 221.25,-47.76 221.25,-47.76 221.25,-32.26 221.25,-32.26 221.25,-26.26 227.25,-20.26 233.25,-20.26 233.25,-20.26 298.75,-20.26 298.75,-20.26 304.75,-20.26 310.75,-26.26 310.75,-32.26 310.75,-32.26 310.75,-47.76 310.75,-47.76 310.75,-53.76 304.75,-59.76 298.75,-59.76"/>
<text text-anchor="middle" x="266" y="-42.46" font-family="Arial" font-size="14.00">QSkin_sc_u</text>
<text text-anchor="middle" x="266" y="-26.71" font-family="Arial" font-size="14.00">[&#45;]</text>
</a>
</g>
</g>
<!-- QSkin_u&#45;&gt;QSkin_sc_u -->
<g id="edge18" class="edge">
<title>QSkin_u&#45;&gt;QSkin_sc_u</title>
<path fill="none" stroke="black" d="M230.03,-165.77C245.4,-156.22 260.94,-145.94 263,-142.26 275.03,-120.72 274.78,-92.39 272.09,-71.18"/>
<polygon fill="black" stroke="black" points="275.57,-70.76 270.59,-61.41 268.65,-71.82 275.57,-70.76"/>
<text text-anchor="middle" x="281.99" y="-128.96" font-family="Times New Roman,serif" font-size="14.00">_J13</text>
</g>
<!-- QSkin_sc_e&#45;&gt;QSkin_e -->
<g id="edge19" class="edge">
<title>QSkin_sc_e&#45;&gt;QSkin_e</title>
<path fill="none" stroke="black" d="M85.65,-60.09C87.11,-80.47 88.65,-113.72 86,-142.26 85.63,-146.29 85.06,-150.51 84.39,-154.66"/>
<polygon fill="black" stroke="black" points="80.95,-154.01 82.61,-164.47 87.84,-155.25 80.95,-154.01"/>
<text text-anchor="middle" x="99.7" y="-128.96" font-family="Times New Roman,serif" font-size="14.00">_J18</text>
</g>
<!-- QSkin_sc_u&#45;&gt;QSkin_u -->
<g id="edge20" class="edge">
<title>QSkin_sc_u&#45;&gt;QSkin_u</title>
<path fill="none" stroke="black" d="M240.45,-60.11C222.11,-75.52 198.89,-98.99 188.5,-125.76 184.96,-134.87 185.29,-145.26 187.13,-154.77"/>
<polygon fill="black" stroke="black" points="183.71,-155.51 189.59,-164.33 190.49,-153.77 183.71,-155.51"/>
<text text-anchor="middle" x="201.25" y="-128.96" font-family="Times New Roman,serif" font-size="14.00">_J14</text>
</g>
<!-- QPoor&#45;&gt;QVen -->
<g id="edge21" class="edge">
<title>QPoor&#45;&gt;QVen</title>
<path fill="none" stroke="black" d="M448,-165.88C448,-141.78 448,-100.07 448,-71.54"/>
<polygon fill="black" stroke="black" points="451.5,-71.72 448,-61.72 444.5,-71.72 451.5,-71.72"/>
<text text-anchor="middle" x="457.38" y="-128.96" font-family="Times New Roman,serif" font-size="14.00">_J7</text>
</g>
<!-- QGut -->
<g id="node14" class="node">
<title>QGut</title>
<g id="a_node14"><a xlink:href="#species-QGut" xlink:title="QGut&#10;[PBPKO:00496]">
<path fill="gold" stroke="black" d="M956,-351.76C956,-351.76 868,-351.76 868,-351.76 862,-351.76 856,-345.76 856,-339.76 856,-339.76 856,-324.26 856,-324.26 856,-318.26 862,-312.26 868,-312.26 868,-312.26 956,-312.26 956,-312.26 962,-312.26 968,-318.26 968,-324.26 968,-324.26 968,-339.76 968,-339.76 968,-345.76 962,-351.76 956,-351.76"/>
<text text-anchor="middle" x="912" y="-334.46" font-family="Arial" font-size="14.00">QGut</text>
<text text-anchor="middle" x="912" y="-318.71" font-family="Arial" font-size="14.00">[PBPKO:00496]</text>
</a>
</g>
</g>
<!-- QGut&#45;&gt;QLiver -->
<g id="edge22" class="edge">
<title>QGut&#45;&gt;QLiver</title>
<path fill="none" stroke="black" d="M912,-311.88C912,-287.78 912,-246.07 912,-217.54"/>
<polygon fill="black" stroke="black" points="915.5,-217.72 912,-207.72 908.5,-217.72 915.5,-217.72"/>
<text text-anchor="middle" x="924.75" y="-274.96" font-family="Times New Roman,serif" font-size="14.00">_J10</text>
</g>
</g>
</svg>
