<?xml version="1.0" encoding="UTF-8" standalone="no"?>
<!DOCTYPE svg PUBLIC "-//W3C//DTD SVG 1.1//EN"
 "http://www.w3.org/Graphics/SVG/1.1/DTD/svg11.dtd">
<!-- Generated by graphviz version 12.2.1 (20241206.2353)
 -->
<!-- Pages: 1 -->
<svg width="499pt" height="288pt"
 viewBox="0.00 0.00 499.38 288.00" xmlns="http://www.w3.org/2000/svg" xmlns:xlink="http://www.w3.org/1999/xlink">
<g id="graph0" class="graph" transform="scale(0.770642 0.770642) rotate(0) translate(4 369.71)">
<polygon fill="white" stroke="none" points="-4,4 -4,-369.71 644,-369.71 644,4 -4,4"/>
<g id="clust1" class="cluster">
<title>cluster_Air</title>
<g id="a_clust1"><a xlink:href="#compartment-Air" xlink:title="Air">
<path fill="lightblue" stroke="black" d="M295,-276.42C295,-276.42 341,-276.42 341,-276.42 347,-276.42 353,-282.42 353,-288.42 353,-288.42 353,-345.18 353,-345.18 353,-351.18 347,-357.18 341,-357.18 341,-357.18 295,-357.18 295,-357.18 289,-357.18 283,-351.18 283,-345.18 283,-345.18 283,-288.42 283,-288.42 283,-282.42 289,-276.42 295,-276.42"/>
<text text-anchor="middle" x="318" y="-339.88" font-family="Arial" font-size="14.00">Air</text>
</a>
</g>
</g>
<g id="clust2" class="cluster">
<title>cluster_Urine</title>
<g id="a_clust2"><a xlink:href="#compartment-Urine" xlink:title="Urine">
<path fill="lightblue" stroke="black" d="M562,-97.83C562,-97.83 620,-97.83 620,-97.83 626,-97.83 632,-103.83 632,-109.83 632,-109.83 632,-166.59 632,-166.59 632,-172.59 626,-178.59 620,-178.59 620,-178.59 562,-178.59 562,-178.59 556,-178.59 550,-172.59 550,-166.59 550,-166.59 550,-109.83 550,-109.83 550,-103.83 556,-97.83 562,-97.83"/>
<text text-anchor="middle" x="591" y="-161.29" font-family="Arial" font-size="14.00">Urine</text>
</a>
</g>
</g>
<g id="clust3" class="cluster">
<title>cluster_Fat</title>
<g id="a_clust3"><a xlink:href="#compartment-Fat" xlink:title="Fat">
<path fill="lightblue" stroke="black" d="M110,-97.83C110,-97.83 156,-97.83 156,-97.83 162,-97.83 168,-103.83 168,-109.83 168,-109.83 168,-166.59 168,-166.59 168,-172.59 162,-178.59 156,-178.59 156,-178.59 110,-178.59 110,-178.59 104,-178.59 98,-172.59 98,-166.59 98,-166.59 98,-109.83 98,-109.83 98,-103.83 104,-97.83 110,-97.83"/>
<text text-anchor="middle" x="133" y="-161.29" font-family="Arial" font-size="14.00">Fat</text>
</a>
</g>
</g>
<g id="clust4" class="cluster">
<title>cluster_Rich</title>
<g id="a_clust4"><a xlink:href="#compartment-Rich" xlink:title="Rich">
<path fill="lightblue" stroke="black" d="M188,-97.83C188,-97.83 234,-97.83 234,-97.83 240,-97.83 246,-103.83 246,-109.83 246,-109.83 246,-166.59 246,-166.59 246,-172.59 240,-178.59 234,-178.59 234,-178.59 188,-178.59 188,-178.59 182,-178.59 176,-172.59 176,-166.59 176,-166.59 176,-109.83 176,-109.83 176,-103.83 182,-97.83 188,-97.83"/>
<text text-anchor="middle" x="211" y="-161.29" font-family="Arial" font-size="14.00">Rich</text>
</a>
</g>
</g>
<g id="clust5" class="cluster">
<title>cluster_Liver</title>
<g id="a_clust5"><a xlink:href="#compartment-Liver" xlink:title="Liver">
<path fill="lightblue" stroke="black" d="M20,-8.53C20,-8.53 78,-8.53 78,-8.53 84,-8.53 90,-14.53 90,-20.53 90,-20.53 90,-166.59 90,-166.59 90,-172.59 84,-178.59 78,-178.59 78,-178.59 20,-178.59 20,-178.59 14,-178.59 8,-172.59 8,-166.59 8,-166.59 8,-20.53 8,-20.53 8,-14.53 14,-8.53 20,-8.53"/>
<text text-anchor="middle" x="49" y="-161.29" font-family="Arial" font-size="14.00">Liver</text>
</a>
</g>
</g>
<g id="clust6" class="cluster">
<title>cluster_Art</title>
<g id="a_clust6"><a xlink:href="#compartment-Art" xlink:title="Art">
<path fill="lightblue" stroke="black" d="M295,-187.12C295,-187.12 341,-187.12 341,-187.12 347,-187.12 353,-193.12 353,-199.12 353,-199.12 353,-255.89 353,-255.89 353,-261.89 347,-267.89 341,-267.89 341,-267.89 295,-267.89 295,-267.89 289,-267.89 283,-261.89 283,-255.89 283,-255.89 283,-199.12 283,-199.12 283,-193.12 289,-187.12 295,-187.12"/>
<text text-anchor="middle" x="318" y="-250.59" font-family="Arial" font-size="14.00">Art</text>
</a>
</g>
</g>
<g id="clust7" class="cluster">
<title>cluster_Ven</title>
<g id="a_clust7"><a xlink:href="#compartment-Ven" xlink:title="Ven">
<path fill="lightblue" stroke="black" d="M267,-8.53C267,-8.53 313,-8.53 313,-8.53 319,-8.53 325,-14.53 325,-20.53 325,-20.53 325,-77.3 325,-77.3 325,-83.3 319,-89.3 313,-89.3 313,-89.3 267,-89.3 267,-89.3 261,-89.3 255,-83.3 255,-77.3 255,-77.3 255,-20.53 255,-20.53 255,-14.53 261,-8.53 267,-8.53"/>
<text text-anchor="middle" x="290" y="-72" font-family="Arial" font-size="14.00">Ven</text>
</a>
</g>
</g>
<g id="clust8" class="cluster">
<title>cluster_Skin_e</title>
<g id="a_clust8"><a xlink:href="#compartment-Skin_e" xlink:title="Skin_e">
<path fill="lightblue" stroke="black" d="M378,-97.83C378,-97.83 438,-97.83 438,-97.83 444,-97.83 450,-103.83 450,-109.83 450,-109.83 450,-166.59 450,-166.59 450,-172.59 444,-178.59 438,-178.59 438,-178.59 378,-178.59 378,-178.59 372,-178.59 366,-172.59 366,-166.59 366,-166.59 366,-109.83 366,-109.83 366,-103.83 372,-97.83 378,-97.83"/>
<text text-anchor="middle" x="408" y="-161.29" font-family="Arial" font-size="14.00">Skin_e</text>
</a>
</g>
</g>
<g id="clust9" class="cluster">
<title>cluster_Skin_u</title>
<g id="a_clust9"><a xlink:href="#compartment-Skin_u" xlink:title="Skin_u">
<path fill="lightblue" stroke="black" d="M470,-97.83C470,-97.83 530,-97.83 530,-97.83 536,-97.83 542,-103.83 542,-109.83 542,-109.83 542,-166.59 542,-166.59 542,-172.59 536,-178.59 530,-178.59 530,-178.59 470,-178.59 470,-178.59 464,-178.59 458,-172.59 458,-166.59 458,-166.59 458,-109.83 458,-109.83 458,-103.83 464,-97.83 470,-97.83"/>
<text text-anchor="middle" x="500" y="-161.29" font-family="Arial" font-size="14.00">Skin_u</text>
</a>
</g>
</g>
<g id="clust10" class="cluster">
<title>cluster_Skin_sc_e</title>
<g id="a_clust10"><a xlink:href="#compartment-Skin_sc_e" xlink:title="Skin_sc_e">
<path fill="lightblue" stroke="black" d="M356,-8.53C356,-8.53 438,-8.53 438,-8.53 444,-8.53 450,-14.53 450,-20.53 450,-20.53 450,-77.3 450,-77.3 450,-83.3 444,-89.3 438,-89.3 438,-89.3 356,-89.3 356,-89.3 350,-89.3 344,-83.3 344,-77.3 344,-77.3 344,-20.53 344,-20.53 344,-14.53 350,-8.53 356,-8.53"/>
<text text-anchor="middle" x="397" y="-72" font-family="Arial" font-size="14.00">Skin_sc_e</text>
</a>
</g>
</g>
<g id="clust11" class="cluster">
<title>cluster_Skin_sc_u</title>
<g id="a_clust11"><a xlink:href="#compartment-Skin_sc_u" xlink:title="Skin_sc_u">
<path fill="lightblue" stroke="black" d="M470,-8.53C470,-8.53 552,-8.53 552,-8.53 558,-8.53 564,-14.53 564,-20.53 564,-20.53 564,-77.3 564,-77.3 564,-83.3 558,-89.3 552,-89.3 552,-89.3 470,-89.3 470,-89.3 464,-89.3 458,-83.3 458,-77.3 458,-77.3 458,-20.53 458,-20.53 458,-14.53 464,-8.53 470,-8.53"/>
<text text-anchor="middle" x="511" y="-72" font-family="Arial" font-size="14.00">Skin_sc_u</text>
</a>
</g>
</g>
<g id="clust12" class="cluster">
<title>cluster_Poor</title>
<g id="a_clust12"><a xlink:href="#compartment-Poor" xlink:title="Poor">
<path fill="lightblue" stroke="black" d="M266,-97.83C266,-97.83 314,-97.83 314,-97.83 320,-97.83 326,-103.83 326,-109.83 326,-109.83 326,-166.59 326,-166.59 326,-172.59 320,-178.59 314,-178.59 314,-178.59 266,-178.59 266,-178.59 260,-178.59 254,-172.59 254,-166.59 254,-166.59 254,-109.83 254,-109.83 254,-103.83 260,-97.83 266,-97.83"/>
<text text-anchor="middle" x="290" y="-161.29" font-family="Arial" font-size="14.00">Poor</text>
</a>
</g>
</g>
<g id="clust13" class="cluster">
<title>cluster_Gut</title>
<g id="a_clust13"><a xlink:href="#compartment-Gut" xlink:title="Gut">
<path fill="lightblue" stroke="black" d="M31,-187.12C31,-187.12 77,-187.12 77,-187.12 83,-187.12 89,-193.12 89,-199.12 89,-199.12 89,-255.89 89,-255.89 89,-261.89 83,-267.89 77,-267.89 77,-267.89 31,-267.89 31,-267.89 25,-267.89 19,-261.89 19,-255.89 19,-255.89 19,-199.12 19,-199.12 19,-193.12 25,-187.12 31,-187.12"/>
<text text-anchor="middle" x="54" y="-250.59" font-family="Arial" font-size="14.00">Gut</text>
</a>
</g>
</g>
<!-- QAir -->
<g id="node1" class="node">
<title>QAir</title>
<g id="a_node1"><a xlink:href="#species-QAir" xlink:title="QAir">
<path fill="gold" stroke="black" d="M333,-322.53C333,-322.53 303,-322.53 303,-322.53 297,-322.53 291,-316.53 291,-310.53 291,-310.53 291,-298.53 291,-298.53 291,-292.53 297,-286.53 303,-286.53 303,-286.53 333,-286.53 333,-286.53 339,-286.53 345,-292.53 345,-298.53 345,-298.53 345,-310.53 345,-310.53 345,-316.53 339,-322.53 333,-322.53"/>
<text text-anchor="middle" x="318" y="-299.1" font-family="Arial" font-size="14.00">QAir</text>
</a>
</g>
</g>
<!-- QArt -->
<g id="node7" class="node">
<title>QArt</title>
<g id="a_node7"><a xlink:href="#species-QArt" xlink:title="QArt">
<path fill="gold" stroke="black" d="M333,-232.53C333,-232.53 303,-232.53 303,-232.53 297,-232.53 291,-226.53 291,-220.53 291,-220.53 291,-208.53 291,-208.53 291,-202.53 297,-196.53 303,-196.53 303,-196.53 333,-196.53 333,-196.53 339,-196.53 345,-202.53 345,-208.53 345,-208.53 345,-220.53 345,-220.53 345,-226.53 339,-232.53 333,-232.53"/>
<text text-anchor="middle" x="318" y="-209.1" font-family="Arial" font-size="14.00">QArt</text>
</a>
</g>
</g>
<!-- QAir&#45;&gt;QArt -->
<g id="edge1" class="edge">
<title>QAir&#45;&gt;QArt</title>
<path fill="none" stroke="black" d="M323.5,-286.14C324.79,-274.21 325.08,-258.1 324.38,-244.27"/>
<polygon fill="black" stroke="black" points="327.87,-244.09 323.62,-234.39 320.89,-244.63 327.87,-244.09"/>
</g>
<!-- QExcret -->
<g id="node2" class="node">
<title>QExcret</title>
<g id="a_node2"><a xlink:href="#species-QExcret" xlink:title="QExcret">
<path fill="gold" stroke="black" d="M611.75,-143.53C611.75,-143.53 570.25,-143.53 570.25,-143.53 564.25,-143.53 558.25,-137.53 558.25,-131.53 558.25,-131.53 558.25,-119.53 558.25,-119.53 558.25,-113.53 564.25,-107.53 570.25,-107.53 570.25,-107.53 611.75,-107.53 611.75,-107.53 617.75,-107.53 623.75,-113.53 623.75,-119.53 623.75,-119.53 623.75,-131.53 623.75,-131.53 623.75,-137.53 617.75,-143.53 611.75,-143.53"/>
<text text-anchor="middle" x="591" y="-120.1" font-family="Arial" font-size="14.00">QExcret</text>
</a>
</g>
</g>
<!-- QFat -->
<g id="node3" class="node">
<title>QFat</title>
<g id="a_node3"><a xlink:href="#species-QFat" xlink:title="QFat">
<path fill="gold" stroke="black" d="M148,-143.53C148,-143.53 118,-143.53 118,-143.53 112,-143.53 106,-137.53 106,-131.53 106,-131.53 106,-119.53 106,-119.53 106,-113.53 112,-107.53 118,-107.53 118,-107.53 148,-107.53 148,-107.53 154,-107.53 160,-113.53 160,-119.53 160,-119.53 160,-131.53 160,-131.53 160,-137.53 154,-143.53 148,-143.53"/>
<text text-anchor="middle" x="133" y="-120.1" font-family="Arial" font-size="14.00">QFat</text>
</a>
</g>
</g>
<!-- QVen -->
<g id="node8" class="node">
<title>QVen</title>
<g id="a_node8"><a xlink:href="#species-QVen" xlink:title="QVen">
<path fill="gold" stroke="black" d="M305,-54.53C305,-54.53 275,-54.53 275,-54.53 269,-54.53 263,-48.53 263,-42.53 263,-42.53 263,-30.53 263,-30.53 263,-24.53 269,-18.53 275,-18.53 275,-18.53 305,-18.53 305,-18.53 311,-18.53 317,-24.53 317,-30.53 317,-30.53 317,-42.53 317,-42.53 317,-48.53 311,-54.53 305,-54.53"/>
<text text-anchor="middle" x="290" y="-31.1" font-family="Arial" font-size="14.00">QVen</text>
</a>
</g>
</g>
<!-- QFat&#45;&gt;QVen -->
<g id="edge2" class="edge">
<title>QFat&#45;&gt;QVen</title>
<path fill="none" stroke="black" d="M159.24,-107.27C163.47,-104.62 167.83,-101.96 172,-99.53 198.54,-84.09 229.27,-68 252.71,-56.08"/>
<polygon fill="black" stroke="black" points="254.23,-59.23 261.58,-51.6 251.07,-52.99 254.23,-59.23"/>
</g>
<!-- QRich -->
<g id="node4" class="node">
<title>QRich</title>
<g id="a_node4"><a xlink:href="#species-QRich" xlink:title="QRich">
<path fill="gold" stroke="black" d="M226.12,-143.53C226.12,-143.53 195.88,-143.53 195.88,-143.53 189.88,-143.53 183.88,-137.53 183.88,-131.53 183.88,-131.53 183.88,-119.53 183.88,-119.53 183.88,-113.53 189.88,-107.53 195.88,-107.53 195.88,-107.53 226.12,-107.53 226.12,-107.53 232.12,-107.53 238.12,-113.53 238.12,-119.53 238.12,-119.53 238.12,-131.53 238.12,-131.53 238.12,-137.53 232.12,-143.53 226.12,-143.53"/>
<text text-anchor="middle" x="211" y="-120.1" font-family="Arial" font-size="14.00">QRich</text>
</a>
</g>
</g>
<!-- QRich&#45;&gt;QVen -->
<g id="edge3" class="edge">
<title>QRich&#45;&gt;QVen</title>
<path fill="none" stroke="black" d="M226.61,-107.34C238,-94.79 253.65,-77.56 266.54,-63.36"/>
<polygon fill="black" stroke="black" points="269.01,-65.86 273.14,-56.1 263.82,-61.15 269.01,-65.86"/>
</g>
<!-- QLiver -->
<g id="node5" class="node">
<title>QLiver</title>
<g id="a_node5"><a xlink:href="#species-QLiver" xlink:title="QLiver">
<path fill="gold" stroke="black" d="M70.25,-143.53C70.25,-143.53 37.75,-143.53 37.75,-143.53 31.75,-143.53 25.75,-137.53 25.75,-131.53 25.75,-131.53 25.75,-119.53 25.75,-119.53 25.75,-113.53 31.75,-107.53 37.75,-107.53 37.75,-107.53 70.25,-107.53 70.25,-107.53 76.25,-107.53 82.25,-113.53 82.25,-119.53 82.25,-119.53 82.25,-131.53 82.25,-131.53 82.25,-137.53 76.25,-143.53 70.25,-143.53"/>
<text text-anchor="middle" x="54" y="-120.1" font-family="Arial" font-size="14.00">QLiver</text>
</a>
</g>
</g>
<!-- QMetab -->
<g id="node6" class="node">
<title>QMetab</title>
<g id="a_node6"><a xlink:href="#species-QMetab" xlink:title="QMetab">
<path fill="gold" stroke="black" d="M69.75,-54.53C69.75,-54.53 28.25,-54.53 28.25,-54.53 22.25,-54.53 16.25,-48.53 16.25,-42.53 16.25,-42.53 16.25,-30.53 16.25,-30.53 16.25,-24.53 22.25,-18.53 28.25,-18.53 28.25,-18.53 69.75,-18.53 69.75,-18.53 75.75,-18.53 81.75,-24.53 81.75,-30.53 81.75,-30.53 81.75,-42.53 81.75,-42.53 81.75,-48.53 75.75,-54.53 69.75,-54.53"/>
<text text-anchor="middle" x="49" y="-31.1" font-family="Arial" font-size="14.00">QMetab</text>
</a>
</g>
</g>
<!-- QLiver&#45;&gt;QMetab -->
<g id="edge4" class="edge">
<title>QLiver&#45;&gt;QMetab</title>
<path fill="none" stroke="black" d="M53.01,-107.34C52.34,-95.62 51.43,-79.82 50.65,-66.21"/>
<polygon fill="black" stroke="black" points="54.16,-66.27 50.09,-56.49 47.17,-66.68 54.16,-66.27"/>
</g>
<!-- QLiver&#45;&gt;QVen -->
<g id="edge5" class="edge">
<title>QLiver&#45;&gt;QVen</title>
<path fill="none" stroke="black" d="M79.72,-107.14C84.36,-104.39 89.24,-101.73 94,-99.53 146.61,-75.24 211.32,-56.83 251.63,-46.6"/>
<polygon fill="black" stroke="black" points="252.24,-50.05 261.1,-44.24 250.55,-43.26 252.24,-50.05"/>
</g>
<!-- QArt&#45;&gt;QAir -->
<g id="edge6" class="edge">
<title>QArt&#45;&gt;QAir</title>
<path fill="none" stroke="black" d="M312.5,-232.88C311.21,-244.8 310.92,-260.92 311.62,-274.74"/>
<polygon fill="black" stroke="black" points="308.13,-274.93 312.38,-284.63 315.11,-274.4 308.13,-274.93"/>
</g>
<!-- QArt&#45;&gt;QExcret -->
<g id="edge7" class="edge">
<title>QArt&#45;&gt;QExcret</title>
<path fill="none" stroke="black" d="M345.45,-214.48C390.22,-214.87 480.51,-210.7 546,-175.28 556.23,-169.75 565.38,-161 572.73,-152.43"/>
<polygon fill="black" stroke="black" points="575.24,-154.89 578.74,-144.89 569.77,-150.52 575.24,-154.89"/>
</g>
<!-- QArt&#45;&gt;QFat -->
<g id="edge8" class="edge">
<title>QArt&#45;&gt;QFat</title>
<path fill="none" stroke="black" d="M290.64,-211.52C259.64,-208.13 208.69,-199.12 172,-175.28 163.25,-169.59 155.56,-161.28 149.37,-153.13"/>
<polygon fill="black" stroke="black" points="152.31,-151.22 143.7,-145.04 146.58,-155.24 152.31,-151.22"/>
</g>
<!-- QArt&#45;&gt;QRich -->
<g id="edge9" class="edge">
<title>QArt&#45;&gt;QRich</title>
<path fill="none" stroke="black" d="M290.64,-201.19C277.58,-194.56 262.18,-185.63 250,-175.28 242.37,-168.79 235.16,-160.64 229.07,-152.86"/>
<polygon fill="black" stroke="black" points="231.93,-150.84 223.14,-144.92 226.32,-155.03 231.93,-150.84"/>
</g>
<!-- QArt&#45;&gt;QLiver -->
<g id="edge10" class="edge">
<title>QArt&#45;&gt;QLiver</title>
<path fill="none" stroke="black" d="M290.77,-211.27C238.67,-206.56 127.09,-194.51 94,-175.28 84.65,-169.84 76.55,-161.34 70.14,-152.95"/>
<polygon fill="black" stroke="black" points="73.12,-151.1 64.51,-144.93 67.39,-155.13 73.12,-151.1"/>
</g>
<!-- QSkin_e -->
<g id="node9" class="node">
<title>QSkin_e</title>
<g id="a_node9"><a xlink:href="#species-QSkin_e" xlink:title="QSkin_e">
<path fill="gold" stroke="black" d="M430.25,-143.53C430.25,-143.53 385.75,-143.53 385.75,-143.53 379.75,-143.53 373.75,-137.53 373.75,-131.53 373.75,-131.53 373.75,-119.53 373.75,-119.53 373.75,-113.53 379.75,-107.53 385.75,-107.53 385.75,-107.53 430.25,-107.53 430.25,-107.53 436.25,-107.53 442.25,-113.53 442.25,-119.53 442.25,-119.53 442.25,-131.53 442.25,-131.53 442.25,-137.53 436.25,-143.53 430.25,-143.53"/>
<text text-anchor="middle" x="408" y="-120.1" font-family="Arial" font-size="14.00">QSkin_e</text>
</a>
</g>
</g>
<!-- QArt&#45;&gt;QSkin_e -->
<g id="edge11" class="edge">
<title>QArt&#45;&gt;QSkin_e</title>
<path fill="none" stroke="black" d="M337.44,-196.23C344.61,-189.74 352.75,-182.25 360,-175.28 367.8,-167.78 376.12,-159.45 383.61,-151.83"/>
<polygon fill="black" stroke="black" points="385.8,-154.59 390.28,-144.99 380.79,-149.7 385.8,-154.59"/>
</g>
<!-- QSkin_u -->
<g id="node10" class="node">
<title>QSkin_u</title>
<g id="a_node10"><a xlink:href="#species-QSkin_u" xlink:title="QSkin_u">
<path fill="gold" stroke="black" d="M522.25,-143.53C522.25,-143.53 477.75,-143.53 477.75,-143.53 471.75,-143.53 465.75,-137.53 465.75,-131.53 465.75,-131.53 465.75,-119.53 465.75,-119.53 465.75,-113.53 471.75,-107.53 477.75,-107.53 477.75,-107.53 522.25,-107.53 522.25,-107.53 528.25,-107.53 534.25,-113.53 534.25,-119.53 534.25,-119.53 534.25,-131.53 534.25,-131.53 534.25,-137.53 528.25,-143.53 522.25,-143.53"/>
<text text-anchor="middle" x="500" y="-120.1" font-family="Arial" font-size="14.00">QSkin_u</text>
</a>
</g>
</g>
<!-- QArt&#45;&gt;QSkin_u -->
<g id="edge12" class="edge">
<title>QArt&#45;&gt;QSkin_u</title>
<path fill="none" stroke="black" d="M345.26,-210.25C374.01,-205.83 419.8,-195.98 454,-175.28 463.8,-169.35 472.86,-160.78 480.3,-152.47"/>
<polygon fill="black" stroke="black" points="482.96,-154.75 486.73,-144.85 477.61,-150.24 482.96,-154.75"/>
</g>
<!-- QPoor -->
<g id="node13" class="node">
<title>QPoor</title>
<g id="a_node13"><a xlink:href="#species-QPoor" xlink:title="QPoor">
<path fill="gold" stroke="black" d="M305.88,-143.53C305.88,-143.53 274.12,-143.53 274.12,-143.53 268.12,-143.53 262.12,-137.53 262.12,-131.53 262.12,-131.53 262.12,-119.53 262.12,-119.53 262.12,-113.53 268.12,-107.53 274.12,-107.53 274.12,-107.53 305.88,-107.53 305.88,-107.53 311.88,-107.53 317.88,-113.53 317.88,-119.53 317.88,-119.53 317.88,-131.53 317.88,-131.53 317.88,-137.53 311.88,-143.53 305.88,-143.53"/>
<text text-anchor="middle" x="290" y="-120.1" font-family="Arial" font-size="14.00">QPoor</text>
</a>
</g>
</g>
<!-- QArt&#45;&gt;QPoor -->
<g id="edge13" class="edge">
<title>QArt&#45;&gt;QPoor</title>
<path fill="none" stroke="black" d="M312.47,-196.34C308.66,-184.5 303.51,-168.5 299.1,-154.8"/>
<polygon fill="black" stroke="black" points="302.48,-153.87 296.08,-145.42 295.81,-156.01 302.48,-153.87"/>
</g>
<!-- QVen&#45;&gt;QArt -->
<g id="edge14" class="edge">
<title>QVen&#45;&gt;QArt</title>
<path fill="none" stroke="black" d="M305.09,-54.87C314.26,-66.61 325.11,-82.94 330,-99.53 339.51,-131.82 335.1,-142 330,-175.28 329.5,-178.57 328.76,-181.96 327.9,-185.31"/>
<polygon fill="black" stroke="black" points="324.57,-184.24 325.07,-194.83 331.28,-186.24 324.57,-184.24"/>
</g>
<!-- QSkin_e&#45;&gt;QVen -->
<g id="edge15" class="edge">
<title>QSkin_e&#45;&gt;QVen</title>
<path fill="none" stroke="black" d="M375.24,-107.15C361.09,-99.43 346.34,-91.03 340,-86.28 330.78,-79.38 321.52,-70.89 313.51,-62.93"/>
<polygon fill="black" stroke="black" points="316.24,-60.71 306.74,-56.01 311.23,-65.61 316.24,-60.71"/>
</g>
<!-- QSkin_sc_e -->
<g id="node11" class="node">
<title>QSkin_sc_e</title>
<g id="a_node11"><a xlink:href="#species-QSkin_sc_e" xlink:title="QSkin_sc_e">
<path fill="gold" stroke="black" d="M429.75,-54.53C429.75,-54.53 364.25,-54.53 364.25,-54.53 358.25,-54.53 352.25,-48.53 352.25,-42.53 352.25,-42.53 352.25,-30.53 352.25,-30.53 352.25,-24.53 358.25,-18.53 364.25,-18.53 364.25,-18.53 429.75,-18.53 429.75,-18.53 435.75,-18.53 441.75,-24.53 441.75,-30.53 441.75,-30.53 441.75,-42.53 441.75,-42.53 441.75,-48.53 435.75,-54.53 429.75,-54.53"/>
<text text-anchor="middle" x="397" y="-31.1" font-family="Arial" font-size="14.00">QSkin_sc_e</text>
</a>
</g>
</g>
<!-- QSkin_e&#45;&gt;QSkin_sc_e -->
<g id="edge16" class="edge">
<title>QSkin_e&#45;&gt;QSkin_sc_e</title>
<path fill="none" stroke="black" d="M411.33,-107.34C411.13,-95.62 409.42,-79.82 407.02,-66.21"/>
<polygon fill="black" stroke="black" points="410.46,-65.57 405.04,-56.46 403.6,-66.96 410.46,-65.57"/>
</g>
<!-- QSkin_u&#45;&gt;QVen -->
<g id="edge17" class="edge">
<title>QSkin_u&#45;&gt;QVen</title>
<path fill="none" stroke="black" d="M472.04,-107.16C466.25,-104.19 460.07,-101.45 454,-99.53 405.37,-84.13 386.06,-108.2 340,-86.28 328.83,-80.97 318.63,-72.15 310.39,-63.46"/>
<polygon fill="black" stroke="black" points="313.1,-61.24 303.85,-56.08 307.87,-65.89 313.1,-61.24"/>
</g>
<!-- QSkin_sc_u -->
<g id="node12" class="node">
<title>QSkin_sc_u</title>
<g id="a_node12"><a xlink:href="#species-QSkin_sc_u" xlink:title="QSkin_sc_u">
<path fill="gold" stroke="black" d="M543.75,-54.53C543.75,-54.53 478.25,-54.53 478.25,-54.53 472.25,-54.53 466.25,-48.53 466.25,-42.53 466.25,-42.53 466.25,-30.53 466.25,-30.53 466.25,-24.53 472.25,-18.53 478.25,-18.53 478.25,-18.53 543.75,-18.53 543.75,-18.53 549.75,-18.53 555.75,-24.53 555.75,-30.53 555.75,-30.53 555.75,-42.53 555.75,-42.53 555.75,-48.53 549.75,-54.53 543.75,-54.53"/>
<text text-anchor="middle" x="511" y="-31.1" font-family="Arial" font-size="14.00">QSkin_sc_u</text>
</a>
</g>
</g>
<!-- QSkin_u&#45;&gt;QSkin_sc_u -->
<g id="edge18" class="edge">
<title>QSkin_u&#45;&gt;QSkin_sc_u</title>
<path fill="none" stroke="black" d="M507.68,-107.34C510.44,-95.62 512.73,-79.82 513.76,-66.21"/>
<polygon fill="black" stroke="black" points="517.24,-66.65 514.25,-56.49 510.25,-66.3 517.24,-66.65"/>
</g>
<!-- QSkin_sc_e&#45;&gt;QSkin_e -->
<g id="edge19" class="edge">
<title>QSkin_sc_e&#45;&gt;QSkin_e</title>
<path fill="none" stroke="black" d="M393.67,-54.98C393.9,-66.76 395.62,-82.58 398.04,-96.15"/>
<polygon fill="black" stroke="black" points="394.59,-96.76 400.02,-105.86 401.45,-95.36 394.59,-96.76"/>
</g>
<!-- QSkin_sc_u&#45;&gt;QSkin_u -->
<g id="edge20" class="edge">
<title>QSkin_sc_u&#45;&gt;QSkin_u</title>
<path fill="none" stroke="black" d="M503.26,-54.98C500.51,-66.76 498.23,-82.58 497.21,-96.15"/>
<polygon fill="black" stroke="black" points="493.73,-95.67 496.74,-105.83 500.73,-96.01 493.73,-95.67"/>
</g>
<!-- QPoor&#45;&gt;QVen -->
<g id="edge21" class="edge">
<title>QPoor&#45;&gt;QVen</title>
<path fill="none" stroke="black" d="M290,-107.34C290,-95.62 290,-79.82 290,-66.21"/>
<polygon fill="black" stroke="black" points="293.5,-66.49 290,-56.49 286.5,-66.49 293.5,-66.49"/>
</g>
<!-- QGut -->
<g id="node14" class="node">
<title>QGut</title>
<g id="a_node14"><a xlink:href="#species-QGut" xlink:title="QGut">
<path fill="gold" stroke="black" d="M69,-232.53C69,-232.53 39,-232.53 39,-232.53 33,-232.53 27,-226.53 27,-220.53 27,-220.53 27,-208.53 27,-208.53 27,-202.53 33,-196.53 39,-196.53 39,-196.53 69,-196.53 69,-196.53 75,-196.53 81,-202.53 81,-208.53 81,-208.53 81,-220.53 81,-220.53 81,-226.53 75,-232.53 69,-232.53"/>
<text text-anchor="middle" x="54" y="-209.1" font-family="Arial" font-size="14.00">QGut</text>
</a>
</g>
</g>
<!-- QGut&#45;&gt;QLiver -->
<g id="edge22" class="edge">
<title>QGut&#45;&gt;QLiver</title>
<path fill="none" stroke="black" d="M54,-196.34C54,-184.62 54,-168.82 54,-155.21"/>
<polygon fill="black" stroke="black" points="57.5,-155.49 54,-145.49 50.5,-155.49 57.5,-155.49"/>
</g>
</g>
</svg>
